 <svg  version="1.0" xmlns="http://www.w3.org/2000/svg"  width="300.000000pt" height="350.000000pt" viewBox="0 0 300.000000 350.000000"  preserveAspectRatio="xMidYMid meet">  <g transform="translate(0.000000,350.000000) scale(0.050000,-0.050000)" fill="#2a6092" stroke="none"> <path d="M5182 6974 c-37 -12 -121 -71 -187 -132 -66 -61 -134 -112 -152 -115 -18 -2 -80 -57 -137 -121 -96 -107 -107 -114 -146 -90 -35 21 -220 17 -220 -5 0 -84 71 -134 177 -126 111 9 223 -14 223 -45 0 -33 -52 -60 -74 -38 -50 50 -346 6 -313 -46 7 -13 -4 -15 -30 -7 -32 10 -43 5 -43 -19 0 -18 -8 -27 -18 -21 -9 6 -29 -3 -42 -19 -14 -17 -41 -30 -61 -30 -20 0 -43 -10 -51 -23 -9 -15 -5 -18 12 -7 17 11 21 8 12 -7 -8 -13 -27 -23 -43 -23 -16 0 -29 -7 -29 -17 0 -9 -25 -29 -55 -45 -30 -15 -67 -40 -82 -54 -15 -14 -38 -22 -50 -18 -12 4 -39 -9 -61 -29 -21 -19 -46 -31 -55 -25 -9 6 -17 1 -17 -11 0 -11 -9 -21 -21 -21 -11 0 -45 -18 -75 -39 -30 -22 -81 -45 -114 -51 l-60 -12 50 30 c28 17 42 31 33 31 -10 1 -9 12 2 26 31 40 45 118 18 101 -13 -8 -35 -17 -50 -19 -15 -2 -33 -11 -40 -19 -7 -8 3 -9 22 -2 19 7 35 4 35 -7 0 -10 -10 -19 -21 -19 -12 0 -16 -8 -10 -18 6 -10 -7 -13 -30 -8 -25 7 -37 22 -31 39 12 30 8 32 -36 15 -18 -7 -28 -18 -23 -26 4 -8 -10 -15 -32 -17 -52 -4 -36 43 18 51 22 4 54 32 69 64 35 72 128 149 146 120 7 -11 21 -20 32 -20 11 0 15 8 9 19 -7 11 39 15 114 10 69 -4 116 -1 105 7 -13 8 -3 31 24 58 25 24 50 35 57 24 17 -28 49 -1 37 31 -6 15 0 34 14 42 15 9 19 7 11 -6 -21 -34 9 -89 42 -76 20 8 26 2 18 -19 -7 -16 -3 -30 8 -30 10 0 19 15 19 34 0 25 6 28 22 12 26 -26 140 32 213 109 l44 46 -59 83 c-33 45 -60 72 -60 60 0 -12 9 -27 20 -34 27 -17 25 -90 -2 -90 -12 0 -17 13 -11 28 16 43 -86 188 -223 317 -66 63 -110 115 -98 115 13 0 86 -65 163 -145 152 -158 142 -135 -24 59 -280 326 -518 157 -636 -454 -38 -196 -77 -275 -119 -240 -19 16 -30 16 -41 -1 -8 -13 -2 -32 13 -43 22 -16 21 -18 -5 -9 -58 18 -163 -125 -194 -264 -77 -341 656 -139 1274 353 l188 148 52 -42 c488 -392 1127 -656 1292 -535 88 64 -136 520 -227 464 -29 -17 -47 33 -112 309 -69 289 -140 469 -205 520 -56 44 -66 45 -163 14z m184 -130 c51 -56 174 -462 174 -575 0 -42 -64 -36 -184 19 -149 67 -234 91 -347 101 -55 5 -103 11 -109 12 -5 2 -25 2 -43 0 -59 -5 -60 60 -2 130 53 63 130 94 120 46 -3 -12 26 -41 64 -64 37 -22 61 -30 53 -16 -14 22 46 -6 241 -113 26 -15 72 -28 102 -30 57 -4 59 2 36 109 -17 82 -153 358 -171 347 -8 -5 -20 8 -26 30 -13 52 47 54 92 4z m-180 -232 c18 11 18 8 1 -11 -17 -18 -33 -19 -62 -4 -22 12 -45 16 -52 9 -7 -7 -13 1 -13 17 0 51 21 56 62 15 22 -22 50 -33 64 -26z m-1340 -1 c29 5 32 0 13 -23 -18 -21 -18 -28 0 -28 13 0 17 -11 8 -25 -10 -17 -4 -16 19 2 19 16 35 22 37 15 9 -45 6 -64 -12 -78 -12 -9 -4 -14 19 -13 69 6 117 0 104 -13 -7 -7 3 -27 21 -45 30 -31 30 -33 -1 -39 -19 -4 -34 -15 -34 -24 0 -10 -25 -17 -55 -16 -83 3 -145 -23 -147 -60 -1 -21 -8 -15 -18 16 -15 47 -16 47 -18 6 -1 -24 -12 -50 -25 -58 -14 -8 -18 -5 -10 7 7 11 -1 26 -18 33 -20 7 -26 3 -17 -12 10 -15 4 -19 -18 -10 -18 7 -39 3 -46 -9 -9 -14 -19 -12 -30 6 -24 38 -22 102 3 87 13 -9 16 5 8 38 -11 45 -7 52 33 52 44 0 45 1 7 29 -22 17 -28 30 -14 30 14 1 24 8 23 16 -6 38 4 66 20 56 9 -6 29 3 43 20 20 25 19 28 -5 19 -17 -7 -29 0 -29 17 0 21 13 24 51 14 29 -8 68 -13 88 -10z m1047 -342 c50 12 53 11 22 -13 -33 -24 -32 -26 15 -29 27 -1 50 4 50 12 0 8 13 14 29 14 16 0 25 -7 19 -16 -10 -17 35 -25 89 -18 16 2 22 -7 14 -23 -8 -14 0 -9 18 13 17 22 31 28 31 14 0 -14 9 -20 20 -13 11 7 20 -1 20 -17 0 -17 -16 -33 -35 -37 -24 -5 -27 -12 -12 -22 13 -8 37 -1 53 15 22 22 34 23 54 5 20 -19 22 -18 9 6 -15 26 -12 26 18 2 19 -16 30 -42 23 -58 -8 -23 -5 -25 16 -7 15 12 34 17 41 9 23 -23 14 -46 -18 -46 -17 0 -25 -10 -18 -21 7 -12 28 -17 46 -10 29 10 28 8 -2 -16 -40 -31 -27 -55 22 -40 28 9 29 8 3 -11 -24 -17 -40 -10 -76 33 -25 30 -40 40 -33 22 6 -18 1 -40 -13 -48 -16 -10 -19 -7 -8 11 12 20 7 23 -17 14 -18 -7 -33 -4 -33 8 0 11 -27 29 -60 41 -33 11 -55 29 -49 39 25 40 -16 60 -54 26 -37 -34 -41 -33 -93 21 -30 31 -43 50 -29 43 14 -8 25 -5 25 7 0 27 -26 27 -54 -1 -16 -16 -34 -9 -67 29 -25 28 -53 47 -62 41 -9 -5 -11 5 -4 23 9 24 17 26 28 8 9 -16 35 -19 72 -10z"/> <path d="M1908 6894 c-50 -29 -138 -129 -226 -259 -77 -114 -68 -112 -124 -20 -25 41 -47 78 -50 82 -16 21 -128 -52 -128 -82 0 -30 -6 -32 -40 -10 -22 13 -37 38 -35 55 9 53 -135 52 -172 -2 -17 -25 -26 -53 -20 -63 7 -11 1 -26 -12 -34 -16 -10 -3 -33 43 -71 69 -58 10 -60 -64 -2 -16 14 -55 35 -85 48 -30 13 -55 32 -55 44 0 28 23 24 69 -11 84 -63 59 16 -38 119 -256 274 -482 234 -540 -93 -15 -85 -39 -93 -103 -33 -83 78 -218 -82 -171 -202 8 -19 17 -4 25 40 7 39 15 66 17 60 7 -17 22 -87 29 -136 11 -76 45 -97 91 -55 22 20 57 32 79 26 25 -7 55 6 82 35 77 82 200 69 200 -22 0 -16 35 -67 77 -113 65 -72 77 -100 81 -185 4 -100 58 -190 113 -190 66 0 119 52 123 120 11 175 60 198 184 82 l57 -54 -67 -73 c-37 -41 -103 -92 -145 -114 -85 -43 -148 -137 -73 -108 16 6 26 18 21 26 -19 30 91 64 122 38 23 -19 36 -16 63 14 32 35 32 35 0 11 -51 -38 -88 -6 -43 36 21 19 60 62 88 95 68 81 101 89 143 36 19 -24 74 -54 121 -66 87 -22 149 -73 194 -160 26 -51 164 -122 237 -123 38 0 42 6 25 37 -11 21 -14 43 -7 50 21 21 89 15 76 -7 -7 -11 9 -20 36 -20 60 0 180 -40 197 -66 14 -21 345 -9 399 14 34 15 33 20 76 -378 18 -166 4 -347 -25 -330 -18 11 -71 -74 -72 -116 -1 -14 -28 -55 -61 -90 -33 -35 -60 -75 -60 -89 0 -14 -11 -25 -25 -25 -17 -1 -15 -7 5 -20 19 -13 23 -26 10 -35 -11 -8 -23 -28 -27 -45 -3 -16 -19 -37 -35 -46 -16 -9 -24 -24 -18 -33 5 -10 -17 -27 -50 -38 -53 -19 -85 -47 -45 -41 48 8 68 -5 56 -36 -7 -19 -7 -28 1 -21 8 8 27 -3 43 -25 15 -23 35 -36 45 -30 19 12 51 -139 43 -207 -3 -32 2 -42 19 -32 17 11 21 5 13 -16 -7 -18 1 -43 17 -57 16 -13 27 -38 24 -56 -3 -18 2 -43 11 -57 8 -14 8 -25 -1 -25 -9 0 -3 -9 13 -19 15 -10 31 -37 34 -60 14 -92 127 -204 127 -126 0 29 -96 337 -142 455 -92 237 -78 422 46 635 196 335 178 888 -40 1219 -34 53 -45 90 -36 125 15 61 -9 66 -58 11 -28 -31 -63 -40 -148 -41 l-112 -2 65 -32 c58 -29 87 -65 52 -65 -25 0 -228 105 -240 125 -6 10 8 9 32 -4 24 -13 53 -20 65 -16 13 4 -8 21 -46 39 -133 62 -144 61 -197 -17 -73 -106 -127 -125 -203 -69 -62 46 -130 43 -112 -5 5 -14 -8 -37 -31 -51 -35 -22 -39 -22 -29 5 9 24 -5 35 -57 45 -75 14 -120 70 -99 125 10 26 7 28 -13 8 -37 -37 -106 -30 -146 14 -19 21 -63 42 -98 45 -55 5 -63 14 -65 66 -2 33 -4 69 -5 80 -3 23 -162 77 -179 61 -6 -6 0 -11 12 -11 55 0 67 -80 22 -153 -25 -41 -43 -103 -43 -149 0 -61 -8 -78 -35 -78 -55 0 -100 85 -87 164 10 60 0 82 -71 164 -94 109 -90 94 -54 181 48 115 120 113 242 -5 52 -50 65 -55 100 -33 22 14 85 31 140 39 57 8 115 30 135 51 52 55 160 69 237 31 35 -18 83 -32 106 -33 23 0 73 -17 110 -37 112 -60 251 46 169 128 -26 27 -36 28 -50 6 -13 -21 -17 -20 -17 4 0 21 -5 23 -16 7 -8 -13 -39 -30 -69 -38 -65 -16 -81 54 -20 89 19 12 28 21 20 21 -8 1 4 20 28 44 42 42 44 42 70 6 15 -20 27 -29 27 -20 0 9 14 5 30 -9 26 -22 29 -20 18 7 -19 51 18 38 61 -21 37 -52 37 -53 0 -38 -21 8 -31 8 -24 0 8 -8 6 -25 -4 -37 -32 -39 -2 -99 68 -135 86 -43 151 -27 151 36 0 70 82 64 153 -12 63 -67 114 -79 103 -25 -4 19 -23 35 -44 35 -28 0 -38 18 -44 78 -8 89 -20 108 -50 78 -36 -36 -126 15 -201 114 -115 150 -209 201 -289 154z m275 -214 c30 0 54 -87 32 -115 -42 -52 -89 -29 -79 38 7 44 0 68 -23 81 -18 10 -33 34 -33 54 0 63 26 64 56 2 16 -33 37 -60 47 -60z m-1332 45 c76 -65 94 -99 58 -112 -17 -7 -26 -4 -20 6 7 10 -18 46 -54 80 -68 64 -55 85 16 26z m-180 -131 c-6 13 -1 30 12 38 13 8 18 6 11 -5 -6 -10 -4 -31 6 -47 26 -42 -14 -100 -69 -100 -63 0 -125 59 -87 83 21 13 20 17 -4 18 -17 1 -11 9 15 20 25 10 45 28 45 41 0 12 19 1 42 -25 22 -26 36 -36 29 -23z m-340 -150 c-20 -63 -69 -71 -83 -13 -17 69 27 123 67 82 17 -17 24 -45 16 -69z m1734 -622 c-53 -55 -247 -73 -214 -20 6 10 41 18 76 18 36 0 83 13 104 28 52 38 77 19 34 -26z"/> <path d="M1581 6407 c-22 -29 -41 -69 -41 -89 0 -19 -9 -41 -20 -48 -32 -20 -24 -110 10 -110 17 0 30 14 30 30 0 41 10 38 68 -20 50 -50 112 -67 112 -31 0 10 -17 30 -37 45 -61 43 -85 108 -71 195 15 95 6 100 -51 28z"/> <path d="M2341 6326 c-1 -24 -10 -49 -21 -56 -11 -7 -20 -23 -20 -36 0 -12 19 -4 42 19 34 34 38 50 21 80 -20 35 -22 34 -22 -7z"/> <path d="M184 6196 c-2 -67 -8 -127 -14 -133 -6 -5 9 -30 32 -55 l43 -46 -43 -87 c-23 -48 -42 -98 -42 -111 0 -12 -20 -41 -44 -63 -61 -58 -67 -159 -9 -148 24 4 32 2 18 -4 -49 -24 -24 -42 60 -45 50 -2 74 3 60 13 -17 10 12 25 79 40 213 49 549 239 479 270 -30 13 -40 31 -32 56 9 30 1 37 -42 37 -43 0 -49 5 -31 27 31 38 12 77 -58 117 -33 19 -84 74 -113 122 -48 80 -57 86 -100 66 -49 -23 -61 -61 -26 -83 12 -7 16 -37 9 -67 -13 -63 37 -205 56 -155 7 17 7 63 0 102 -13 82 9 91 68 26 78 -86 91 -131 46 -155 -64 -34 -39 -69 65 -87 38 -7 20 -44 -25 -50 -27 -4 -61 -16 -75 -28 -19 -15 -38 -7 -72 27 -25 27 -62 57 -83 69 -26 15 -38 48 -40 116 -3 53 -15 106 -27 118 -13 13 -23 40 -23 60 0 21 -8 32 -18 26 -9 -6 -23 5 -30 24 -45 125 -65 125 -68 1z"/> <path d="M1986 6227 c1 -42 -2 -89 -7 -104 -5 -16 1 -32 14 -37 39 -14 57 152 21 189 -27 27 -30 22 -28 -48z"/> <path d="M2154 6239 c-31 -32 -47 -61 -35 -68 25 -16 101 59 101 99 0 36 3 38 -66 -31z"/> <path d="M1844 6256 c-17 -17 -17 -30 -1 -50 32 -38 57 -32 57 13 0 49 -27 66 -56 37z"/> <path d="M2420 6242 c0 -20 14 -48 30 -62 17 -14 30 -18 30 -10 0 8 12 5 26 -6 16 -14 36 -15 55 -3 16 10 21 19 12 19 -10 0 -7 13 6 28 17 22 17 32 -1 43 -15 9 -19 7 -11 -7 9 -14 -5 -19 -41 -16 -30 4 -58 17 -62 29 -12 37 -44 26 -44 -15z"/> <path d="M2350 6140 c-7 -11 1 -14 20 -7 19 7 52 -6 81 -34 27 -25 54 -41 60 -35 15 15 -89 96 -123 96 -14 0 -31 -9 -38 -20z"/> <path d="M1736 6109 c-15 -14 4 -89 22 -89 23 0 62 46 62 74 0 26 -63 37 -84 15z"/> <path d="M4154 5680 c-102 -80 -51 -220 79 -220 153 0 175 214 26 250 -35 9 -67 -1 -105 -30z"/> <path d="M4944 5689 c-89 -63 -29 -229 82 -229 120 0 168 148 72 222 -59 46 -96 47 -154 7z"/> <path d="M827 5549 c-82 -82 -22 -229 93 -229 119 0 165 162 67 239 -68 54 -98 52 -160 -10z"/> <path d="M2989 5529 c-13 -66 -1 -380 18 -489 26 -148 174 -392 247 -406 54 -10 55 -9 15 67 -16 32 -24 59 -16 59 7 0 -1 16 -18 35 -33 37 -80 185 -60 185 7 0 -5 14 -26 32 -32 26 -33 29 -5 21 19 -6 41 -1 48 11 9 13 5 17 -9 8 -24 -15 -38 8 -49 82 -10 70 -31 76 -26 7 6 -81 -23 -78 -38 4 -12 68 -1 321 16 349 16 28 -23 106 -54 106 -19 0 -35 -27 -43 -71z"/> <path d="M1664 5529 c-58 -41 -58 -134 0 -188 120 -112 272 63 156 179 -48 48 -96 51 -156 9z"/> <path d="M121 5395 c-16 -25 -30 -98 -31 -164 -2 -114 -37 -175 -56 -97 -4 20 -4 -8 1 -63 18 -186 92 -352 278 -626 135 -198 162 -311 110 -452 -23 -62 -33 -113 -22 -113 11 0 7 -31 -11 -72 -36 -88 -36 -88 -3 -88 40 0 113 87 113 136 0 30 12 44 39 44 27 0 36 10 28 30 -6 17 -2 30 9 30 12 0 24 -20 28 -43 3 -24 20 -48 36 -54 25 -8 26 -4 5 21 -21 25 -20 35 6 57 23 19 25 29 7 40 -13 8 -18 30 -11 48 7 19 22 28 33 21 26 -16 26 -84 0 -100 -11 -7 -20 -21 -20 -32 0 -11 9 -15 20 -8 11 7 20 2 20 -10 0 -12 8 -17 19 -11 10 6 21 -8 25 -32 3 -24 17 -47 29 -52 36 -11 7 80 -34 109 -22 16 -30 42 -24 76 8 41 15 46 38 28 23 -19 25 -17 14 14 -13 36 -12 37 26 3 22 -19 54 -35 72 -35 17 0 35 -11 40 -24 6 -19 11 -19 23 0 8 13 4 24 -8 24 -12 0 -16 10 -9 21 7 12 -3 39 -22 60 -41 45 -86 53 -49 9 39 -47 6 -35 -40 15 -39 41 -41 42 -30 5 13 -38 12 -38 -16 -4 -19 23 -33 28 -38 13 -5 -16 -15 -14 -33 7 -19 24 -19 34 -1 45 16 10 19 7 8 -11 -11 -17 -8 -21 7 -12 13 8 18 23 12 34 -6 10 -19 14 -27 9 -9 -5 -36 18 -61 51 l-45 61 47 -24 c47 -24 47 -24 7 15 -22 22 -53 39 -68 38 -16 -1 -35 23 -44 54 -14 51 -12 54 18 31 30 -23 29 -21 -1 15 -19 23 -35 52 -35 66 0 13 -7 20 -15 15 -22 -13 -95 44 -78 60 7 8 -5 33 -27 57 -22 23 -42 67 -44 96 -3 30 -12 54 -22 54 -9 0 -11 17 -5 38 9 28 1 42 -28 52 -38 12 -48 29 -36 65 3 8 11 13 18 11 24 -8 65 56 46 71 -26 18 -35 69 -9 53 11 -7 20 1 20 18 0 19 11 26 30 19 45 -17 36 8 -11 34 -31 16 -50 15 -75 -4 -19 -14 -27 -18 -19 -8 8 10 -5 27 -29 39 -99 50 -68 79 71 66 85 -8 133 -5 133 8 0 11 -9 15 -20 8 -11 -7 -20 8 -20 34 -1 35 -5 39 -18 18 -22 -34 -82 14 -82 66 0 18 -11 26 -28 20 -15 -6 -35 0 -43 14 -10 16 -7 19 11 8 17 -11 21 -8 12 7 -23 38 -80 26 -111 -22z"/> <path d="M3400 5363 c0 -30 20 -40 95 -50 52 -8 182 -33 289 -57 107 -24 201 -38 208 -31 32 32 -14 75 -80 75 -37 0 -164 23 -280 50 -253 60 -232 59 -232 13z"/> <path d="M4403 5382 c-40 -25 -20 -103 36 -140 46 -30 48 -30 35 5 -8 20 -14 63 -14 95 0 60 -12 69 -57 40z"/> <path d="M4505 5377 c-14 -14 -25 -46 -25 -71 0 -43 20 -69 112 -145 23 -19 27 -31 11 -37 -15 -5 -23 -62 -23 -161 -1 -238 -22 -271 -190 -287 -86 -9 -82 -67 5 -63 36 2 65 -5 65 -14 0 -81 124 -98 191 -26 39 42 60 50 109 40 45 -9 65 -4 73 18 17 43 -1 55 -98 68 l-85 11 -6 120 c-13 244 8 323 102 375 93 51 120 120 60 151 -65 35 -273 49 -301 21z"/> <path d="M3253 5224 c3 -63 10 -158 17 -212 6 -57 3 -104 -9 -111 -28 -18 -2 -101 31 -101 16 0 28 -14 28 -30 0 -17 25 -42 55 -55 30 -14 67 -38 81 -55 24 -26 25 -26 12 0 -13 25 -11 26 16 4 26 -21 34 -19 44 9 12 30 16 30 42 -5 16 -21 29 -27 29 -14 1 29 -95 106 -132 106 -15 0 -27 7 -27 15 -1 8 -33 50 -71 93 -39 43 -64 84 -55 90 9 7 16 41 15 77 0 39 8 63 21 58 12 -5 23 8 25 29 1 21 -6 38 -17 38 -11 0 -15 9 -8 20 7 12 6 20 -4 18 -53 -9 -70 5 -61 52 5 27 -1 58 -14 69 -17 15 -22 -9 -18 -95z"/> <path d="M5145 5304 c-21 -54 29 -63 285 -48 211 11 260 20 260 44 0 42 -529 45 -545 4z"/> <path d="M5948 5325 c8 -14 5 -25 -7 -25 -11 0 -21 -19 -21 -41 0 -23 -9 -36 -20 -29 -11 7 -20 -7 -20 -30 0 -23 -18 -75 -39 -116 -22 -41 -44 -97 -50 -125 -5 -29 -41 -93 -80 -143 -67 -89 -72 -116 -18 -116 78 0 248 317 254 474 1 53 12 102 23 110 12 9 9 24 -8 40 -21 19 -24 20 -14 1z"/> <path d="M1109 5279 c-30 -48 13 -114 108 -166 98 -53 99 -53 82 -128 -10 -41 -13 -106 -7 -145 16 -98 -50 -158 -183 -168 -54 -5 -101 -19 -106 -33 -6 -18 19 -22 99 -14 94 9 110 5 144 -38 49 -63 159 -65 202 -3 28 40 38 41 126 21 62 -14 103 -15 116 -3 29 29 -18 51 -138 67 -173 23 -192 45 -192 232 0 152 2 161 50 179 77 29 107 112 59 160 -58 58 -281 64 -323 9 -29 -38 -30 -38 -17 6 14 47 3 60 -20 24z"/> <path d="M3200 5272 c0 -16 -8 -32 -18 -35 -10 -4 -6 -34 9 -67 l27 -60 -6 60 c-4 33 2 76 11 95 12 22 11 35 -2 35 -12 0 -21 -13 -21 -28z"/> <path d="M490 5226 c32 -25 33 -29 5 -19 -19 6 -35 3 -35 -8 0 -19 20 -23 145 -26 36 -1 72 -11 80 -23 9 -12 15 -10 15 6 0 19 10 20 40 4 43 -23 46 -20 28 28 -7 18 -28 32 -47 32 -19 0 -40 5 -46 12 -7 6 -60 15 -119 19 -100 6 -104 5 -66 -25z"/> <path d="M2437 5251 c-5 -5 -116 -23 -248 -40 -131 -17 -266 -37 -299 -44 l-60 -13 53 -15 c29 -8 96 -7 150 1 53 9 176 27 273 41 177 26 303 77 192 78 -28 1 -55 -3 -61 -8z"/> <path d="M3671 5032 c-220 -60 -281 -91 -236 -119 10 -6 76 7 146 30 71 22 183 52 249 65 83 18 122 36 126 59 9 43 -2 41 -285 -35z"/> <path d="M5088 5071 c-17 -43 -29 -38 202 -87 333 -71 350 -73 350 -37 0 21 -25 35 -75 43 -64 10 -317 71 -430 104 -21 6 -40 -3 -47 -23z"/> <path d="M1860 5030 c0 -28 116 -62 345 -98 166 -27 211 -11 70 24 -339 85 -415 99 -415 74z"/> <path d="M690 4988 c-73 -28 -116 -38 -185 -45 -14 -2 -25 -19 -25 -38 1 -27 4 -29 18 -8 14 23 19 23 28 0 7 -18 11 -14 12 10 2 29 8 33 29 16 15 -13 33 -17 40 -10 13 14 89 28 169 33 30 1 42 11 35 30 -6 15 -11 31 -11 36 0 13 -26 8 -110 -24z"/> <path d="M3192 4462 c-18 -77 -32 -158 -32 -180 0 -22 -18 -70 -39 -106 -100 -170 -178 -613 -199 -1136 -14 -337 -66 -409 -70 -97 l-1 113 -45 -78 c-34 -61 -40 -90 -26 -133 10 -30 38 -158 62 -284 23 -126 54 -248 68 -270 14 -23 32 -76 39 -118 9 -53 26 -81 52 -88 111 -29 254 -912 190 -1165 -19 -71 -39 -155 -45 -185 -6 -30 -21 -56 -33 -56 -13 -1 -59 -48 -104 -105 -307 -392 -1072 -603 -1716 -473 -248 50 -331 76 -384 123 -23 20 -55 36 -72 36 -22 0 -28 17 -24 65 4 36 2 54 -5 40 -26 -56 -128 9 -128 81 0 18 -11 28 -25 23 -16 -6 -47 38 -83 116 -55 121 -88 226 -57 185 15 -21 86 -57 151 -78 25 -8 33 -24 25 -52 -6 -22 -15 -56 -21 -75 -6 -22 6 -46 32 -62 23 -14 36 -16 29 -4 -8 12 1 27 18 33 24 10 27 19 10 39 -12 15 -25 51 -28 79 -3 29 -24 65 -46 81 -52 36 -89 137 -61 165 29 29 -2 69 -45 58 -36 -10 -69 34 -49 66 36 58 250 -28 250 -101 0 -22 21 -38 58 -46 109 -21 81 -237 -34 -266 -63 -16 -27 -50 61 -58 62 -6 71 0 100 67 30 72 36 370 7 399 -7 6 -12 47 -12 90 0 67 -5 76 -38 66 -47 -15 -78 24 -33 41 36 14 42 50 7 43 -61 -13 -90 -123 -45 -169 46 -46 62 -13 17 37 -38 43 -38 43 7 19 46 -24 60 -71 26 -91 -11 -7 -15 -24 -9 -39 6 -15 -4 -32 -21 -39 -28 -10 -40 8 -34 51 2 8 -10 10 -25 4 -26 -10 -132 71 -132 101 0 9 -22 33 -50 55 -27 21 -50 52 -50 67 0 16 -8 29 -18 29 -20 0 -44 80 -30 103 5 8 23 10 40 3 25 -9 26 -15 5 -28 -21 -14 -19 -17 7 -18 19 0 44 18 56 40 21 39 12 50 -30 40 -85 -18 -110 -18 -110 0 0 11 10 20 21 20 12 0 15 11 6 24 -24 39 -28 133 -6 146 11 7 14 21 8 32 -6 10 -21 13 -32 6 -12 -7 -5 12 15 42 l36 55 38 -112 c20 -62 45 -113 54 -113 38 0 190 -152 184 -183 -3 -18 4 -40 17 -48 16 -10 19 -1 10 28 -19 59 17 54 58 -8 20 -31 42 -44 57 -35 13 8 42 12 65 9 30 -3 48 13 69 66 26 67 60 95 60 50 0 -12 9 -16 20 -9 27 17 19 169 -8 164 -12 -2 -20 7 -17 21 3 14 -9 25 -27 25 -21 0 -28 11 -20 31 7 18 -2 36 -23 43 -19 7 -54 35 -77 62 -30 34 -47 41 -58 24 -8 -13 -4 -34 8 -46 12 -12 22 -53 22 -90 0 -55 6 -66 33 -56 17 7 44 2 60 -10 36 -30 35 -96 -3 -111 -17 -6 -30 -27 -30 -47 0 -105 -144 -80 -172 31 -10 39 -19 45 -39 28 -20 -16 -33 -11 -55 25 -35 55 -62 216 -37 216 35 0 81 -95 70 -142 l-12 -48 32 43 c27 35 28 54 9 109 -17 50 -17 68 1 74 13 4 23 16 23 27 0 26 -144 3 -217 -35 -41 -21 -55 -22 -61 -3 -4 14 -18 32 -30 40 -13 8 -6 15 18 15 29 0 33 5 14 17 -21 13 -19 22 6 43 58 48 75 98 29 86 -30 -8 -37 -3 -27 21 7 18 20 28 29 22 18 -11 10 58 -11 91 -7 11 -1 20 14 20 17 1 19 6 5 15 -12 8 -20 48 -19 89 2 40 -2 73 -8 72 -39 -4 -58 8 -54 33 7 50 32 61 32 15 0 -39 5 -41 50 -20 66 30 63 50 -8 66 -38 8 -66 32 -82 69 -41 101 -115 91 -102 -12 2 -13 -5 -29 -15 -35 -9 -6 -17 23 -17 64 1 252 -56 96 -78 -216 -9 -129 -24 -204 -47 -232 -25 -33 -31 -75 -24 -190 4 -82 7 -278 6 -438 -4 -564 50 -734 313 -982 595 -562 2211 -423 2515 217 20 41 39 64 44 50 5 -15 26 -20 52 -14 46 11 102 -84 81 -138 -55 -146 564 -311 768 -205 70 36 184 162 184 203 0 16 8 29 18 29 9 0 23 20 30 45 10 36 16 40 31 16 10 -16 14 -35 10 -43 -5 -8 17 -23 48 -34 31 -11 104 -55 162 -99 124 -94 207 -122 376 -127 69 -2 149 -16 178 -31 210 -109 453 332 325 588 -26 52 -53 98 -60 101 -7 3 -8 28 -2 56 10 53 -71 254 -96 238 -7 -4 -9 -36 -4 -69 10 -73 -30 -84 -48 -12 -18 73 30 398 86 589 28 93 52 203 53 245 2 42 9 77 17 77 8 0 44 26 80 57 36 32 86 64 111 72 27 8 49 35 56 67 22 101 48 144 87 144 75 0 116 86 132 275 34 407 -6 1221 -70 1446 -11 38 -20 127 -20 199 0 143 -31 280 -62 280 -12 0 -15 -18 -8 -40 7 -22 5 -40 -4 -40 -27 0 -85 -110 -119 -225 -37 -123 -174 -435 -237 -535 -46 -75 -84 -163 -55 -130 95 110 275 475 317 642 7 28 35 93 61 145 l47 93 0 -80 c-1 -259 -247 -859 -465 -1132 -346 -435 -545 -618 -669 -618 -27 0 -43 -9 -36 -20 7 -11 2 -20 -10 -20 -33 0 -204 165 -422 410 -108 121 -228 254 -267 295 -175 187 -459 698 -512 921 -24 100 -19 116 50 140 25 9 -22 122 -69 164 -34 31 -38 26 -68 -108z m145 -618 c84 -276 338 -641 682 -978 156 -154 167 -193 20 -77 -48 37 -96 63 -108 56 -12 -6 -15 -4 -7 4 8 9 -49 87 -126 175 -290 329 -529 723 -566 931 -22 126 60 40 105 -111z m2203 -75 c-12 -31 -17 -68 -11 -83 6 -16 3 -23 -6 -18 -10 6 -27 -23 -39 -64 -13 -41 -53 -125 -90 -186 -37 -62 -85 -155 -106 -208 -35 -88 -380 -485 -402 -462 -5 4 41 76 103 159 61 83 111 160 111 170 0 11 8 23 18 26 29 11 232 343 336 550 90 179 130 234 86 116z m-2343 16 c-2 -8 20 -64 50 -125 29 -60 53 -132 53 -158 0 -27 12 -63 28 -80 58 -67 127 -346 124 -507 -1 -85 4 -157 12 -160 8 -3 18 -23 22 -45 5 -22 17 -62 28 -90 12 -27 16 -61 11 -75 -5 -14 2 -25 15 -25 17 0 20 -17 10 -55 -8 -30 -15 -64 -14 -75 11 -248 31 -350 68 -350 11 0 16 -12 10 -28 -6 -15 -3 -35 6 -45 29 -29 40 -127 14 -122 -13 3 -23 -6 -22 -20 1 -14 3 -43 5 -65 2 -22 13 -40 24 -40 12 0 16 9 9 20 -7 11 -4 20 6 20 23 0 12 -247 -16 -366 -10 -46 -20 -120 -20 -164 -1 -44 -13 -113 -28 -153 -22 -63 -21 -81 10 -140 20 -37 37 -86 37 -109 1 -34 21 -46 111 -66 77 -17 110 -34 110 -57 0 -17 -6 -26 -12 -19 -7 7 -26 -1 -42 -17 -16 -16 -39 -23 -50 -16 -12 7 -36 -6 -54 -30 -23 -31 -40 -37 -62 -23 -26 17 -25 19 5 20 37 0 48 50 15 70 -11 7 -15 -1 -8 -18 8 -21 -5 -34 -45 -44 -31 -7 -68 -22 -82 -33 -18 -14 -25 -11 -25 11 0 24 -23 30 -105 27 l-105 -3 -2 100 c-1 55 8 116 20 135 24 38 72 48 72 14 0 -30 117 -139 149 -139 16 0 31 -14 35 -31 5 -28 10 -28 46 -1 39 29 38 32 -38 95 -78 65 -156 203 -139 246 9 25 -38 407 -72 587 -29 149 -31 305 -6 321 39 24 52 123 23 178 -22 40 -23 53 -3 60 35 12 31 60 -14 191 -21 61 -75 288 -121 504 -94 449 -113 513 -141 469 -24 -38 -24 -7 0 39 10 19 24 79 29 134 21 187 37 268 55 268 9 0 16 -7 14 -15z m2451 -374 c24 -37 27 -62 12 -100 -35 -94 -240 -179 -240 -100 0 50 39 109 72 109 60 0 154 62 130 86 -21 21 -30 54 -14 54 4 0 22 -22 40 -49z m-2565 -354 c-17 -59 -20 -49 -19 73 0 77 6 149 13 160 22 34 26 -162 6 -233z m2647 -390 c-8 -97 -25 -179 -43 -200 -27 -33 -28 -23 -17 101 14 166 -30 160 -70 -9 -23 -95 -60 -152 -60 -92 0 45 138 616 166 683 30 75 45 -219 24 -483z m-2075 408 c-3 -14 9 -25 25 -25 27 0 83 -50 156 -138 21 -26 21 -32 0 -32 -19 -1 -18 -6 3 -19 16 -10 37 -13 47 -7 10 6 13 -10 6 -36 -6 -27 -6 -37 0 -23 6 14 25 25 41 25 16 0 25 -7 20 -16 -12 -19 118 -111 157 -111 16 0 24 -6 19 -14 -4 -8 15 -31 44 -51 28 -21 64 -50 79 -64 15 -15 45 -28 66 -29 22 -2 35 -10 29 -19 -5 -9 10 -16 33 -16 25 0 37 -9 29 -22 -8 -13 4 -20 34 -18 85 8 102 1 89 -33 -15 -37 48 -107 96 -107 16 0 46 -27 65 -60 20 -34 48 -56 62 -51 14 5 25 3 25 -6 0 -9 25 -28 55 -43 167 -82 303 -171 312 -204 5 -20 11 -43 13 -51 2 -8 -8 -18 -22 -22 -15 -5 -20 3 -12 24 7 17 2 38 -10 45 -13 9 -17 5 -8 -9 9 -14 2 -23 -17 -23 -17 0 -31 -10 -31 -21 0 -12 9 -16 20 -9 13 8 13 -6 0 -41 -11 -29 -15 -61 -8 -72 6 -10 1 -32 -12 -47 -13 -16 -26 -54 -29 -84 -11 -122 -36 -205 -58 -194 -13 6 -6 -3 15 -20 36 -29 37 -34 5 -68 -35 -40 -45 -74 -15 -55 10 6 23 -3 29 -19 7 -17 1 -30 -12 -30 -17 0 -17 -6 1 -24 34 -34 30 -63 -6 -49 -25 10 -27 5 -10 -28 16 -29 16 -38 -1 -34 -33 7 -55 -66 -38 -125 8 -27 16 -40 17 -27 2 29 73 12 103 -24 12 -15 37 -21 54 -14 26 10 23 -2 -11 -50 -27 -38 -70 -67 -109 -76 -36 -7 -74 -20 -85 -29 -28 -20 -135 -47 -167 -42 -34 6 -106 -57 -91 -81 6 -9 -5 -17 -23 -17 -23 0 -29 10 -20 35 10 27 8 30 -10 11 -27 -26 -119 66 -119 120 0 33 95 59 105 29 7 -22 227 -29 289 -8 47 16 38 58 -34 168 -28 42 -83 63 -78 30 9 -56 -4 -70 -31 -34 -30 41 -34 2 -5 -45 10 -16 2 -21 -27 -16 -32 6 -39 0 -30 -28 8 -23 1 -35 -19 -35 -16 0 -30 6 -30 15 0 15 -132 5 -161 -12 -42 -27 -86 128 -58 203 10 25 10 50 2 55 -9 6 -17 44 -18 86 -1 61 2 68 17 36 14 -30 17 -20 13 43 -3 46 -1 81 5 77 5 -3 12 15 15 42 2 26 6 71 9 98 2 28 12 50 21 50 9 0 5 12 -9 27 -39 42 -70 19 -85 -61 -10 -50 -6 -77 13 -89 17 -11 18 -16 2 -17 -24 0 -44 -118 -55 -321 -3 -62 -15 -130 -27 -151 -12 -23 -14 -52 -4 -68 20 -33 -57 -141 -129 -180 -37 -19 -45 -33 -30 -51 50 -60 -90 -329 -171 -329 -104 0 -84 241 25 306 l69 40 -57 25 -57 24 56 23 c31 12 52 30 46 39 -6 10 5 37 25 60 l37 42 44 -41 43 -41 38 47 c29 36 32 52 14 75 -18 23 -17 25 5 12 19 -11 24 -8 18 11 -10 28 -77 27 -96 0 -30 -43 -77 -37 -89 12 -12 49 -14 49 -43 13 -29 -35 -30 -35 -18 6 6 25 1 50 -12 58 -15 10 -19 7 -10 -8 9 -14 1 -23 -18 -23 -18 0 -27 -9 -20 -20 7 -11 -2 -34 -19 -52 -17 -17 -31 -21 -31 -10 0 11 -14 15 -32 9 -21 -9 -24 -17 -9 -27 16 -9 14 -21 -8 -39 -27 -22 -31 -18 -31 32 -1 39 -6 49 -18 30 -16 -26 -102 -2 -102 29 0 6 8 5 19 -1 10 -6 24 -3 30 7 6 11 3 25 -9 32 -29 18 -25 55 5 38 14 -8 18 -7 10 2 -8 9 -3 31 10 48 22 28 21 29 -10 5 -30 -24 -35 -24 -35 4 0 17 16 40 35 51 28 16 29 21 5 22 -27 1 -27 3 0 20 35 22 40 59 14 95 -10 13 -12 40 -4 60 8 19 17 80 19 135 2 60 12 98 25 96 12 -3 27 8 33 24 8 19 1 24 -21 16 -27 -11 -30 -1 -20 61 6 40 4 73 -5 73 -25 0 -43 60 -27 87 29 45 24 76 -11 64 -18 -6 -2 18 37 53 38 35 54 58 34 50 -28 -11 -33 -4 -26 36 5 27 1 55 -9 61 -20 12 -25 -11 -21 -81 2 -28 -6 -22 -25 20 -18 40 -21 68 -8 85 13 16 13 25 0 25 -22 0 -47 75 -56 165 -3 31 2 50 12 44 10 -6 13 3 7 20 -7 17 -18 27 -25 23 -7 -5 -15 31 -17 79 -2 48 -15 108 -28 133 -21 39 -20 43 4 22 24 -20 30 -11 32 55 2 51 -5 76 -20 74 -13 -3 -23 11 -21 30 1 19 -6 30 -15 24 -24 -15 -22 13 2 51 14 22 19 23 20 4 0 -15 10 -20 23 -12 14 9 3 24 -31 42 -39 20 -51 39 -42 65 6 21 2 43 -9 50 -12 8 -20 29 -20 47 2 28 5 27 19 -6 9 -22 19 -33 21 -25 2 8 6 24 9 35 3 11 6 25 8 30 5 22 22 8 17 -15z m-589 -277 c21 -217 26 -442 11 -527 -5 -30 12 -46 76 -70 159 -60 211 -155 127 -231 -71 -65 -240 93 -240 224 0 23 -12 51 -28 64 -19 16 -32 99 -42 270 -30 528 48 749 96 270z m2264 152 c-27 -55 -49 -109 -50 -120 0 -11 -32 -55 -71 -97 -38 -43 -84 -111 -101 -150 -17 -40 -40 -89 -50 -108 -27 -52 -23 -56 33 -31 63 29 103 -12 63 -63 -21 -27 -19 -27 9 -5 42 33 59 9 72 -99 10 -86 -28 -160 -58 -113 -10 16 -17 17 -17 4 0 -13 -21 -18 -50 -13 -29 6 -50 0 -50 -13 0 -12 -10 -22 -22 -22 -16 0 -16 9 1 29 29 35 8 78 -31 63 -19 -7 -28 4 -28 37 0 27 -10 55 -22 62 -12 7 -17 30 -12 51 7 25 0 38 -19 38 -18 0 -24 -10 -14 -25 10 -17 4 -16 -19 2 -18 15 -30 34 -25 41 4 7 -33 15 -84 17 -103 5 -146 43 -85 75 21 11 148 124 283 250 373 351 446 391 347 190z m200 -295 c-16 -117 -48 -196 -49 -120 -1 48 42 225 55 225 4 0 1 -47 -6 -105z m-310 -185 c-35 -42 -12 -60 26 -21 27 27 31 27 42 -1 7 -17 3 -25 -8 -18 -11 7 -20 4 -20 -7 0 -11 -16 -17 -35 -14 -43 6 -52 91 -10 91 25 0 25 -5 5 -30z m143 -116 c-12 -15 -16 -34 -8 -42 7 -8 -3 -8 -24 0 -30 12 -35 8 -26 -17 7 -18 2 -41 -12 -52 -18 -15 -25 -11 -25 13 0 19 -8 55 -16 80 -15 44 -13 45 28 20 38 -22 47 -21 66 8 13 19 26 30 31 26 5 -5 -2 -21 -14 -36z m-154 -1674 c37 0 91 -89 91 -151 0 -60 -116 -189 -170 -189 -53 0 -190 118 -190 164 0 33 -5 36 -28 17 -20 -16 -33 -16 -41 -2 -8 12 -4 21 8 21 11 0 21 12 21 27 0 55 93 118 138 94 30 -16 42 -16 42 -1 0 13 8 17 18 11 9 -6 23 10 30 34 12 41 14 42 33 10 12 -19 33 -35 48 -35z"/> <path d="M4220 2181 c0 -10 -18 -24 -40 -31 -55 -18 -51 -49 5 -35 75 20 125 85 65 85 -16 0 -30 -8 -30 -19z"/> <path d="M5515 4521 c-36 -29 -70 -37 -122 -31 -70 9 -101 -15 -48 -37 14 -6 3 -8 -24 -5 -27 3 -66 -10 -87 -30 -38 -34 -94 -32 -94 5 0 10 -19 1 -42 -21 -47 -43 -40 -72 22 -88 27 -7 40 0 40 19 0 16 7 25 16 20 9 -6 28 -3 44 7 15 9 42 10 59 1 43 -22 173 38 271 126 86 77 57 105 -35 34z"/> <path d="M3489 4450 c1 -27 15 -61 30 -75 21 -20 24 -20 13 0 -8 14 -5 25 7 25 11 0 21 -10 21 -21 0 -12 11 -15 25 -6 18 10 18 5 -2 -18 -16 -20 -20 -45 -10 -63 22 -38 187 -157 187 -134 0 10 35 9 82 -3 140 -36 127 -113 -22 -134 -45 -6 -81 -20 -81 -31 0 -37 96 -32 169 9 40 23 86 41 103 41 80 0 25 83 -90 138 -66 31 -113 64 -105 72 8 9 -2 11 -21 4 -19 -7 -35 -4 -35 6 0 10 -20 40 -45 67 -25 26 -66 71 -91 99 -26 29 -59 47 -75 41 -16 -6 -29 -1 -29 11 0 12 -8 22 -17 22 -9 0 -16 -22 -14 -50z"/> <path d="M3301 4329 c0 -21 13 -66 28 -99 l27 -60 -10 80 c-12 85 -47 146 -45 79z"/> <path d="M3464 4215 c52 -51 101 -117 109 -149 31 -128 130 -310 213 -393 136 -136 203 -161 88 -33 -107 119 -230 316 -295 472 -32 79 -61 113 -125 149 l-84 46 94 -92z"/> <path d="M4650 4271 c-50 -23 -49 -36 3 -29 7 1 20 -11 29 -25 10 -15 18 -18 19 -7 1 11 5 36 9 55 3 19 5 35 3 34 -2 0 -30 -13 -63 -28z"/> <path d="M1349 4165 c8 -14 4 -25 -8 -25 -11 0 -21 -10 -21 -21 0 -12 9 -16 20 -9 11 7 26 -2 32 -19 12 -31 48 -44 48 -16 -1 8 -19 38 -42 65 -23 28 -36 39 -29 25z"/> <path d="M3459 3967 c224 -426 1021 -1291 1021 -1108 0 10 14 32 31 50 18 17 24 31 13 31 -10 0 -45 25 -78 55 -33 30 -97 88 -143 129 -46 41 -83 87 -83 103 0 16 -31 52 -69 81 -78 59 -109 68 -68 18 15 -18 17 -27 4 -20 -13 8 -27 7 -32 -1 -5 -8 -6 -4 -3 9 7 29 -71 89 -95 74 -9 -6 -17 -3 -17 6 0 9 -27 46 -60 84 -33 37 -60 73 -61 80 0 6 -28 44 -61 82 -38 45 -55 56 -47 30 16 -49 -76 52 -119 130 -32 58 -170 265 -187 280 -6 6 18 -45 54 -113z"/> <path d="M4870 3956 c-187 -82 -419 -94 -605 -32 -270 90 -330 43 -296 -230 24 -193 136 -235 361 -135 55 24 141 52 190 62 50 9 115 23 146 31 42 10 67 3 100 -28 209 -195 346 -109 356 223 6 196 -23 209 -252 109z m190 -101 c-1 -189 -49 -280 -72 -135 -7 43 -21 74 -30 68 -10 -5 -18 3 -18 20 0 33 32 60 45 37 5 -8 5 -3 2 12 -10 36 9 63 44 63 19 0 29 -22 29 -65z m-819 -22 c24 24 99 13 99 -15 0 -10 20 -15 45 -13 33 4 47 -7 51 -39 20 -137 -231 -174 -263 -38 -20 86 -2 159 27 112 14 -22 24 -24 41 -7z"/> <path d="M1240 3820 c-49 -9 -130 -18 -180 -19 -57 -1 -122 -20 -177 -51 -103 -59 -111 -61 -94 -16 12 31 10 31 -25 -1 -21 -19 -53 -28 -70 -22 -23 9 -31 1 -29 -31 3 -37 12 -41 70 -30 65 12 85 -18 35 -55 -13 -9 -12 -14 2 -15 12 0 53 -21 91 -47 80 -54 205 -102 186 -71 -28 44 147 155 196 125 12 -8 15 -4 8 9 -16 25 -21 24 282 37 228 10 303 33 130 41 -59 3 -103 17 -118 37 -13 18 -28 23 -35 12 -7 -11 -1 -24 13 -30 14 -5 -6 -10 -45 -9 -38 0 -54 5 -35 10 19 5 35 25 35 45 0 29 16 36 81 35 64 -1 78 -8 70 -33 -8 -22 -3 -21 17 5 17 22 33 28 41 16 7 -11 43 -18 82 -15 38 3 69 0 69 -7 0 -7 14 -13 30 -13 17 0 30 8 30 18 0 9 11 11 23 3 16 -10 20 -4 12 16 -9 24 -2 29 28 21 31 -8 34 -15 14 -27 -15 -10 -20 -19 -12 -20 25 -5 43 -11 75 -24 55 -24 196 -7 185 22 -7 17 -17 20 -30 7 -13 -13 -40 -12 -78 1 -33 11 -64 15 -71 9 -7 -7 -23 3 -37 22 -15 21 -53 35 -92 36 -37 1 -184 7 -327 14 -143 6 -300 4 -350 -5z m-66 -152 c33 -44 -120 -73 -254 -46 l-70 13 90 6 90 5 -90 14 c-92 14 -68 22 85 26 30 1 55 8 55 16 0 28 66 4 94 -34z"/> <path d="M311 3714 c-6 -30 -17 -79 -24 -109 -25 -104 -27 -115 -35 -205 -4 -49 -13 -122 -21 -160 -15 -77 17 -190 49 -170 11 7 20 -9 20 -38 0 -92 42 -151 123 -173 85 -23 91 -33 48 -90 -52 -68 -38 -139 41 -208 40 -35 77 -59 83 -53 6 7 -13 30 -42 53 -63 50 -78 179 -20 179 26 0 30 -15 22 -79 -9 -66 -5 -82 27 -92 21 -6 38 -20 38 -30 0 -26 67 -24 94 3 16 16 29 10 46 -22 16 -30 17 -51 3 -65 -36 -36 105 -246 199 -296 65 -35 44 23 -43 118 -87 95 -109 158 -29 83 27 -26 50 -61 50 -78 1 -23 5 -25 16 -8 31 50 104 7 79 -46 -24 -54 -15 -74 27 -58 38 14 41 130 4 130 -78 0 -284 154 -260 194 6 9 -2 65 -17 123 -26 101 17 295 46 208 6 -19 20 -19 62 2 151 77 176 64 280 -137 91 -174 80 -290 -26 -290 -34 -1 -36 -4 -11 -20 151 -98 217 148 98 370 -73 138 -60 169 59 133 43 -12 90 -22 105 -22 16 1 -8 13 -52 27 -257 80 -405 366 -262 508 23 24 26 21 19 -19 -15 -91 41 -245 99 -273 30 -14 67 -52 83 -83 39 -74 205 -120 239 -65 5 9 -16 13 -47 8 -45 -6 -57 0 -54 26 2 19 -13 42 -32 52 -19 10 -51 26 -70 36 -19 10 -33 27 -31 38 3 11 -11 18 -30 17 -23 -2 -36 15 -41 54 -5 44 -14 55 -42 47 -40 -10 -35 25 20 156 14 33 24 67 22 75 -3 17 27 20 167 15 55 -2 109 -11 120 -19 11 -9 43 -22 70 -30 42 -12 40 -8 -15 27 -97 62 -58 123 60 94 25 -7 14 2 -23 20 -72 33 -150 24 -202 -22 -16 -15 -79 -29 -140 -32 -93 -4 -118 -14 -160 -62 -33 -38 -72 -59 -115 -62 l-65 -4 0 -134 c0 -229 -87 -204 -107 31 -15 186 -24 207 -100 248 -126 66 -185 35 -207 -108 l-12 -77 48 43 c111 98 130 97 186 -17 29 -57 52 -123 52 -145 0 -23 14 -62 31 -87 17 -24 24 -44 15 -44 -43 0 -87 -122 -55 -154 33 -33 129 30 129 85 0 42 59 78 84 53 72 -72 15 -186 -98 -196 -42 -4 -111 -16 -155 -26 -91 -23 -151 0 -151 57 0 21 -11 41 -24 46 -19 6 -19 11 0 23 13 8 24 6 24 -3 0 -10 27 -14 60 -9 54 8 87 44 41 44 -62 0 -106 212 -49 234 60 23 74 -40 33 -149 -5 -14 0 -25 12 -25 11 0 26 19 33 41 8 25 25 38 42 31 41 -16 35 13 -20 93 -77 113 -131 160 -169 144 -23 -9 -25 -17 -8 -23 33 -12 32 -49 -5 -119 -29 -56 -30 -56 -30 -8 0 61 -32 33 -51 -44 -10 -43 -5 -58 24 -69 20 -7 63 -39 95 -71 l57 -57 -57 13 c-32 7 -80 40 -108 71 -52 61 -115 75 -155 35 -17 -17 -17 -3 1 55 26 86 91 172 117 156 9 -6 9 10 0 36 -31 83 8 164 102 212 84 43 85 43 25 45 -96 3 -198 48 -224 99 l-23 47 -12 -53z m439 -1054 c9 -58 7 -83 -5 -70 -11 11 -25 65 -32 120 -15 122 16 80 37 -50z"/> <path d="M1900 3660 c0 -10 16 -21 35 -26 19 -5 5 -5 -32 0 -113 14 -186 -10 -163 -55 13 -23 34 -33 55 -26 28 9 30 7 6 -10 -21 -15 -23 -27 -6 -47 12 -15 25 -67 29 -116 9 -133 68 -137 88 -6 26 173 213 283 316 185 10 -9 1 -12 -21 -7 -51 14 -119 -63 -135 -152 l-13 -70 31 54 c40 71 96 102 127 71 17 -17 15 -31 -9 -57 -28 -31 -27 -35 9 -47 22 -7 44 -28 49 -47 5 -19 7 0 3 41 -7 95 13 96 55 3 41 -90 30 -119 -60 -162 -39 -19 -61 -37 -48 -41 41 -14 133 44 160 101 29 61 29 63 -45 184 -27 44 -50 99 -50 123 -1 52 -32 78 -113 96 -105 22 -268 29 -268 11z"/> <path d="M2394 3652 c-6 -15 2 -45 17 -67 15 -22 30 -68 33 -103 5 -62 36 -89 36 -31 0 28 5 27 35 -3 33 -33 35 -33 42 0 11 59 -15 131 -44 120 -15 -5 -26 4 -26 21 0 17 8 31 18 31 9 0 12 9 5 20 -7 12 -21 15 -31 9 -11 -6 -19 -2 -19 10 0 31 -54 26 -66 -7z"/> <path d="M1600 3506 c0 -7 20 -35 45 -61 58 -62 64 -244 10 -299 -33 -33 -35 -32 -35 22 0 102 -106 272 -170 272 -19 0 -12 -17 21 -53 27 -29 49 -61 49 -71 0 -11 14 -33 32 -51 43 -43 22 -138 -46 -209 -106 -110 51 -70 185 48 l73 64 -14 131 c-9 91 -26 145 -55 176 -40 43 -95 61 -95 31z"/> <path d="M4826 3170 c-180 -182 -236 -250 -213 -258 58 -23 487 416 487 498 0 30 -52 -16 -274 -240z"/> <path d="M1284 3354 c-45 -48 -59 -114 -24 -114 11 0 20 11 21 25 0 33 94 100 118 86 10 -7 24 -3 31 9 7 11 -1 20 -17 20 -16 0 -42 5 -57 11 -16 5 -48 -11 -72 -37z"/> <path d="M2090 3299 c-14 -62 4 -114 30 -86 33 37 40 123 11 134 -19 7 -32 -8 -41 -48z"/> <path d="M4393 3307 c-38 -39 102 -247 167 -247 34 0 14 99 -22 111 -21 6 -38 22 -39 35 0 24 -67 114 -84 114 -5 0 -14 -6 -22 -13z"/> <path d="M1345 3260 c-33 -53 -32 -60 13 -60 41 0 62 34 47 75 -13 36 -32 31 -60 -15z"/> <path d="M1849 3223 c6 -20 -2 -69 -19 -109 -17 -40 -29 -80 -28 -89 7 -42 -5 -63 -30 -53 -15 6 -34 1 -41 -11 -7 -11 -2 -21 11 -21 41 0 216 -89 217 -110 1 -29 -133 -68 -156 -45 -25 25 -103 -18 -103 -56 0 -17 13 -35 28 -41 17 -6 23 -27 17 -53 -14 -53 -85 21 -85 90 0 33 -5 36 -30 15 -68 -56 30 -182 137 -178 35 2 47 7 28 12 -44 11 -45 38 -3 54 21 8 29 27 22 54 -8 29 -3 38 16 31 15 -6 30 -2 34 9 24 72 78 -41 65 -138 -14 -103 -68 -148 -96 -79 -6 15 -10 12 -11 -9 -1 -19 -18 -44 -37 -56 -28 -18 -20 -21 42 -12 140 19 221 140 165 249 -33 64 -10 109 34 65 12 -12 31 -22 43 -22 12 0 8 9 -8 19 -17 10 -23 26 -14 35 9 9 39 -10 66 -41 61 -71 78 -59 41 30 -36 86 -98 140 -163 144 -28 2 -51 9 -51 17 0 8 -14 10 -30 3 -31 -12 -90 24 -90 55 0 10 31 18 69 18 74 0 142 91 128 173 -3 21 1 48 10 62 8 14 6 25 -5 25 -11 0 -35 -25 -53 -57 -47 -79 -117 -124 -86 -54 24 53 12 111 -24 111 -12 0 -17 -16 -10 -37z"/> <path d="M1404 3190 c-82 -39 -94 -71 -26 -69 39 0 128 72 119 94 -4 9 -46 -2 -93 -25z"/> <path d="M2391 3141 c-17 -32 -51 -64 -76 -72 -142 -44 -121 -213 29 -225 196 -16 357 210 223 315 -76 59 -140 53 -176 -18z m189 -77 c-1 -48 -78 -181 -80 -136 0 11 15 35 33 56 29 32 30 43 6 91 -15 30 -31 63 -36 72 -4 9 11 7 35 -6 27 -14 42 -42 42 -77z"/> <path d="M1533 2850 c-21 -22 -33 -29 -26 -16 9 15 0 23 -25 21 -22 -2 -38 -8 -37 -14 1 -6 -9 -36 -22 -67 -38 -93 -27 -140 48 -204 39 -33 99 -89 133 -125 35 -36 77 -65 95 -65 26 1 26 4 3 18 -15 10 -22 32 -16 50 8 20 2 32 -16 32 -16 0 -60 28 -99 62 -96 84 -94 143 10 241 77 74 112 86 216 77 31 -2 43 4 33 19 -24 40 -251 18 -297 -29z"/> <path d="M975 2763 c19 -11 4 -36 -55 -90 -123 -114 -55 -276 114 -272 22 0 11 11 -29 29 -85 37 -120 111 -87 184 31 67 68 26 51 -56 -10 -48 -6 -52 40 -43 64 12 79 34 53 80 -15 27 -10 40 24 59 36 20 38 25 9 25 -19 1 -35 9 -35 20 0 26 -59 81 -86 81 -17 -1 -17 -5 1 -17z"/> <path d="M2240 2662 c0 -138 -112 -264 -244 -275 -152 -12 -313 -51 -324 -78 -10 -27 40 -56 68 -39 9 6 36 -21 60 -60 52 -84 52 -84 174 -19 124 66 140 83 109 114 -19 19 -26 16 -35 -16 -14 -56 -149 -99 -180 -58 -12 16 -35 30 -50 30 -15 1 -6 10 20 21 27 11 54 12 60 4 7 -9 28 -17 48 -19 47 -4 33 38 -15 45 -70 10 -75 42 -7 44 157 4 186 2 205 -17 57 -57 232 10 261 101 15 48 -49 196 -107 248 -43 38 -43 38 -43 -26z"/> <path d="M1382 2409 c-17 -68 -36 -95 -75 -110 -40 -15 -50 -30 -42 -68 5 -27 1 -60 -8 -75 -10 -16 -16 1 -17 49 0 87 -16 93 -76 29 -37 -40 -41 -56 -24 -115 11 -38 20 -121 20 -184 0 -144 68 -203 216 -188 104 10 120 23 88 74 -13 21 -24 75 -24 119 0 63 -8 80 -35 80 -29 1 -30 4 -6 19 22 14 27 61 23 210 -2 105 3 191 13 191 21 0 94 -547 79 -587 -14 -35 216 -46 258 -12 33 28 37 116 6 159 -16 23 -18 20 -8 -15 19 -69 -17 -53 -47 20 -14 36 -36 88 -48 115 -12 28 -23 59 -25 70 -16 95 -41 151 -72 161 -21 6 -38 20 -38 31 0 25 -92 118 -117 118 -10 0 -29 -41 -41 -91z"/> <path d="M647 2231 c-9 -24 -5 -42 9 -46 13 -5 24 -26 24 -47 0 -46 31 -50 48 -6 18 47 14 62 -8 28 -16 -25 -19 -23 -20 10 -1 68 -35 107 -53 61z"/> <path d="M2435 2198 c-43 -25 -48 -116 -6 -110 41 6 51 19 62 80 11 56 -1 62 -56 30z"/> <path d="M1998 1995 c-2 -14 -1 -32 0 -41 2 -10 -4 -13 -13 -8 -8 5 -33 -9 -55 -30 -40 -39 -40 -39 50 -26 110 16 105 11 75 76 -27 57 -53 70 -57 29z"/> <path d="M2543 1963 c-28 -4 -42 -16 -36 -32 12 -31 -39 -111 -71 -111 -13 0 -14 10 -3 26 9 14 -3 3 -28 -25 -44 -50 -63 -114 -27 -92 9 6 29 -3 42 -19 34 -41 60 -38 60 8 0 44 71 138 90 119 7 -8 -3 -38 -22 -68 -34 -52 -34 -55 0 -80 24 -18 31 -40 22 -68 -15 -48 39 -80 75 -44 17 17 16 23 -3 23 -18 0 -22 16 -14 48 9 37 2 50 -30 58 -55 15 -43 82 16 90 24 4 50 24 56 45 16 51 71 50 84 -1 13 -47 43 -52 59 -10 6 16 19 25 29 19 10 -6 18 -2 18 9 0 22 -102 82 -139 82 -12 0 -32 -22 -45 -50 -25 -55 -76 -68 -76 -19 0 20 -9 26 -25 16 -18 -10 -17 -5 2 18 36 45 23 66 -34 58z"/> <path d="M2000 1731 c0 -17 12 -25 28 -19 15 6 34 1 41 -11 8 -12 -2 -21 -20 -21 -29 0 -30 -5 -8 -31 14 -18 43 -27 63 -22 20 5 31 1 25 -9 -17 -27 9 -58 39 -46 17 7 23 28 17 54 -14 57 -45 96 -66 84 -9 -6 -29 3 -46 20 -38 38 -73 39 -73 1z"/> <path d="M2735 1656 c-41 -52 -43 -68 -12 -88 27 -17 77 45 77 96 0 48 -22 45 -65 -8z"/> <path d="M893 1547 c-25 -26 -13 -87 18 -87 17 0 26 9 18 21 -7 11 -2 34 12 50 25 30 -18 45 -48 16z"/> <path d="M2404 1538 c13 -9 3 -18 -26 -23 -40 -8 -37 -10 15 -12 35 -2 68 -14 74 -28 6 -15 10 -11 11 10 1 19 16 35 32 35 17 0 30 9 30 19 0 10 -36 17 -79 16 -44 -2 -70 -10 -57 -17z"/> <path d="M1910 1400 c7 -11 39 -20 71 -20 33 0 59 9 59 20 0 11 -32 20 -71 20 -43 0 -66 -8 -59 -20z"/> <path d="M1930 1223 c16 -23 11 -26 -23 -15 -107 34 -243 -122 -168 -192 24 -22 39 -52 33 -67 -5 -15 7 -32 29 -39 24 -8 39 -31 39 -58 0 -29 18 -54 51 -69 103 -47 111 -22 20 67 -50 49 -91 106 -91 126 0 20 -8 45 -18 55 -66 67 30 158 107 102 43 -32 29 -133 -19 -133 -17 0 -24 -12 -17 -30 14 -36 83 -40 81 -5 -6 137 54 183 138 105 65 -60 88 -63 78 -10 -6 30 3 40 36 41 42 0 42 2 7 28 -20 16 -48 24 -61 19 -14 -5 -50 4 -82 20 -31 17 -65 25 -74 19 -9 -5 -33 7 -52 27 -19 21 -25 25 -14 9z"/> <path d="M1560 1007 c0 -27 21 -60 50 -79 28 -18 50 -49 50 -69 0 -20 18 -42 40 -49 73 -23 80 11 15 82 -35 39 -64 89 -64 113 -1 29 -15 43 -46 45 -35 3 -45 -7 -45 -43z"/> <path d="M2718 1050 c-2 -5 -4 -17 -6 -25 -1 -8 -10 -26 -18 -40 -9 -14 -11 -34 -4 -45 7 -11 2 -20 -10 -20 -12 0 -16 -10 -8 -23 9 -14 26 3 47 45 23 47 44 66 70 61 34 -6 34 -3 5 25 -30 31 -71 43 -76 22z"/> <path d="M2038 995 c-2 -14 -1 -42 1 -62 2 -20 -11 -54 -31 -75 -24 -26 -26 -38 -8 -38 14 0 45 21 69 47 24 26 57 52 72 57 22 8 17 20 -21 52 -58 49 -79 54 -82 19z"/> <path d="M2210 980 c7 -11 3 -20 -9 -20 -11 0 -21 -10 -21 -21 0 -25 79 -6 110 26 14 14 12 16 -5 7 -14 -8 -25 -5 -25 7 0 11 -14 21 -31 21 -17 0 -26 -9 -19 -20z"/> <path d="M2769 889 c16 -89 37 -120 69 -100 36 22 25 61 -31 122 l-53 58 15 -80z"/> <path d="M940 290 c0 -18 -9 -27 -20 -20 -11 7 -20 5 -20 -4 0 -9 28 -29 62 -44 90 -40 119 1 40 57 -53 37 -62 39 -62 11z"/> <path d="M2038 304 c23 -16 21 -22 -10 -30 -34 -8 -34 -10 -2 -12 19 -1 55 -14 80 -29 38 -22 54 -21 114 10 55 29 61 38 30 40 -86 7 -142 15 -190 27 -36 10 -42 8 -22 -6z"/> <path d="M1534 271 c-17 -17 -51 -31 -76 -31 -25 0 -40 -5 -34 -11 46 -45 272 -23 234 23 -13 16 -28 24 -34 19 -6 -6 -21 -1 -35 10 -17 14 -34 11 -55 -10z"/> <path d="M1907 231 c12 -32 10 -33 -18 -10 -28 23 -36 22 -50 -3 -12 -21 -43 -30 -97 -27 -56 3 -83 -4 -91 -26 -17 -43 -28 -42 259 -16 143 13 247 29 230 35 -16 6 -66 22 -110 36 -44 14 -93 30 -108 36 -21 8 -25 1 -15 -25z"/> </g> </svg> 