<svg viewBox="0 0 300 300" version="1.1" xmlns="http://www.w3.org/2000/svg" xmlns:xlink="http://www.w3.org/1999/xlink" xml:space="preserve" xmlns:serif="http://www.serif.com/" style="fill-rule:evenodd;clip-rule:evenodd;stroke-linejoin:round;stroke-miterlimit:2;">
    <g transform="matrix(-1.38083,-3.52582,-3.52582,1.38083,312.359,2489.19)">
        <g transform="matrix(0.372416,0,0,0.388704,344.793,-274.865)">
            <path d="M639.065,240.161C620.634,246.2 600.523,234.799 594.634,229.202C588.744,223.606 586.48,213.074 585.799,208.334C585.118,203.595 586.927,203.648 586.927,203.648C586.927,203.648 604.543,197.08 607.632,193.937C610.721,190.794 611.637,181.993 616.752,171.17C621.866,160.348 631.618,157.118 635.59,153.284C639.562,149.449 642.301,147.162 644.014,141.324C645.727,135.486 645.847,139.407 649.793,143.833C653.739,148.259 661.477,158.786 660.505,169.312C659.534,179.839 654.887,184.752 658.558,187.114C662.229,189.475 663.853,188.054 666.864,185.117C669.875,182.18 676.002,177.303 681.128,174.482C686.254,171.662 688.907,167.987 693.25,168.95C697.593,169.914 711.403,182.977 728.57,183.155C745.737,183.332 746.954,189.47 752.643,190.019C758.332,190.569 757.394,190.15 757.052,192.173C756.71,194.196 758.738,193.556 754.947,196.572C751.157,199.588 741.779,205.341 739.625,211.562C737.472,217.782 731.901,230.584 730.257,235.911C728.613,241.238 715.47,251.084 711.687,251.179C707.903,251.274 695.19,250.83 695.876,255.236C696.562,259.642 701.267,266.484 703.425,269.52C705.583,272.555 709.923,287.186 709.923,292.158C709.923,297.129 708.08,296.328 710.184,299.328C712.287,302.329 709.031,299.49 699.434,300.45C689.837,301.41 690.293,304.286 682.828,304.286C675.363,304.286 666.621,300.095 661.81,299.624C656.999,299.153 656.561,298.113 653.053,300.182C649.546,302.25 648.873,306.465 644.669,307.128C640.465,307.791 641.497,307.521 636.975,303.71C632.454,299.899 635.793,297.027 630.406,291.903C625.02,286.78 624.359,287.356 623.096,280.316C621.833,273.276 620.657,274.431 621.929,267.788C623.202,261.145 627.31,250.258 631.279,247.953C635.248,245.647 640.667,239.636 639.065,240.161Z" style="fill:url(#_leaf-1);"/>
            <path d="M639.065,240.161C631.092,242.787 622.8,242.147 615.478,240.124C605.868,237.468 597.931,232.428 594.58,229.254C592.402,227.19 590.714,224.456 589.418,221.586C587.196,216.666 586.123,211.349 585.687,208.349C585.42,206.504 585.529,205.375 585.761,204.685C586.117,203.623 586.767,203.538 586.905,203.533C587.363,203.36 595.645,200.241 601.697,197.316C604.364,196.026 606.598,194.778 607.521,193.836C608.441,192.898 609.161,191.447 609.861,189.588C611.502,185.235 613.019,178.66 616.58,171.096C618.248,167.553 620.41,164.817 622.706,162.605C627.443,158.041 632.754,155.722 635.43,153.131C637.885,150.756 639.868,148.979 641.422,146.574C642.361,145.123 643.142,143.442 643.78,141.261C644.214,139.773 644.558,138.903 644.878,138.5C645.077,138.251 645.283,138.151 645.483,138.145C645.731,138.138 646.009,138.294 646.303,138.629C647.037,139.466 648.054,141.51 649.988,143.674C652.536,146.525 656.654,151.898 659.026,158.178C660.359,161.707 661.139,165.522 660.791,169.336C660.146,176.407 657.841,180.947 657.507,183.882C657.358,185.195 657.624,186.162 658.728,186.871C660.104,187.754 661.169,188.092 662.139,187.986C663.645,187.82 664.89,186.616 666.64,184.906C668.244,183.339 670.728,181.223 673.476,179.159C675.908,177.331 678.548,175.543 680.966,174.211C684.34,172.352 686.648,170.127 689.066,169.087C690.394,168.516 691.755,168.29 693.325,168.638C694.292,168.851 695.72,169.641 697.538,170.761C701.341,173.105 706.913,176.902 713.636,179.611C718.157,181.432 723.199,182.763 728.574,182.817C734.33,182.876 738.308,183.602 741.265,184.562C744.408,185.582 746.401,186.867 748.147,187.909C749.641,188.802 750.943,189.515 752.679,189.683C755.437,189.95 756.67,190.006 757.168,190.199C757.357,190.272 757.476,190.367 757.554,190.474C757.648,190.602 757.69,190.756 757.677,190.95C757.658,191.216 757.504,191.612 757.399,192.227C757.286,192.896 757.469,193.239 757.566,193.542C757.652,193.813 757.688,194.062 757.572,194.381C757.4,194.849 756.813,195.524 755.172,196.83C752.859,198.669 748.462,201.526 744.902,204.887C742.674,206.991 740.772,209.29 739.948,211.664C738.305,216.399 734.68,224.944 732.313,231.107C731.573,233.036 730.956,234.73 730.563,235.998C729.766,238.573 726.335,242.2 722.53,245.288C719.617,247.651 716.492,249.703 714.197,250.735C713.179,251.193 712.315,251.451 711.694,251.466C709.304,251.523 703.332,251.357 699.466,252.354C698.533,252.594 697.725,252.902 697.131,253.303C696.421,253.781 696.03,254.395 696.154,255.197C696.421,256.927 697.32,259.038 698.435,261.142C700.138,264.357 702.35,267.555 703.643,269.378C704.764,270.959 706.476,275.658 707.861,280.523C709.153,285.062 710.162,289.743 710.159,292.158C710.156,294.477 709.759,295.557 709.539,296.344C709.442,296.691 709.378,296.974 709.416,297.294C709.472,297.763 709.738,298.302 710.371,299.208C710.731,299.722 710.937,300.078 710.997,300.313C711.054,300.536 711.002,300.69 710.889,300.796C710.823,300.859 710.727,300.909 710.595,300.936C710.402,300.976 710.105,300.968 709.701,300.927C708.122,300.767 704.763,300.126 699.456,300.65C691.631,301.423 690.495,303.481 686.288,304.205C685.329,304.37 684.214,304.468 682.828,304.466C680.735,304.463 678.541,304.134 676.362,303.648C670.764,302.401 665.259,300.119 661.794,299.775C659.022,299.5 657.709,299.035 656.417,299.092C655.491,299.132 654.579,299.449 653.129,300.3C650.684,301.737 649.621,304.225 647.769,305.814C646.951,306.516 645.984,307.048 644.69,307.25C642.66,307.567 641.825,307.661 641.022,307.274C640.14,306.847 639.294,305.818 636.899,303.793C633.421,300.854 634.574,298.479 632.872,295.207C632.36,294.223 631.585,293.157 630.339,291.968C627.711,289.462 626.207,288.313 625.211,286.978C624.16,285.57 623.668,283.954 623.023,280.328C622.244,275.95 621.495,274.738 621.346,272.853C621.256,271.702 621.388,270.301 621.875,267.779C622.579,264.135 624.138,259.216 626.058,255.136C627.641,251.771 629.471,248.978 631.269,247.937C633.043,246.91 635.107,245.145 636.706,243.552C638.686,241.579 639.952,239.872 639.066,240.161L639.065,240.161ZM756.972,190.859C756.958,190.851 756.928,190.834 756.904,190.825C756.428,190.64 755.246,190.61 752.608,190.356C750.759,190.178 749.364,189.435 747.772,188.485C746.064,187.465 744.115,186.203 741.038,185.204C738.132,184.261 734.222,183.551 728.566,183.492C723.097,183.434 717.965,182.082 713.366,180.224C706.603,177.493 700.996,173.669 697.172,171.306C695.443,170.238 694.094,169.468 693.174,169.263C691.76,168.949 690.534,169.156 689.338,169.669C686.935,170.698 684.644,172.911 681.291,174.753C678.896,176.069 676.281,177.836 673.871,179.642C671.145,181.685 668.68,183.777 667.088,185.327C665.205,187.161 663.826,188.398 662.209,188.573C661.125,188.69 659.923,188.346 658.388,187.356C657.079,186.513 656.728,185.377 656.908,183.819C657.247,180.887 659.561,176.353 660.22,169.288C660.568,165.552 659.805,161.816 658.507,158.358C656.175,152.141 652.112,146.818 649.599,143.992C647.88,142.059 646.884,140.224 646.168,139.246C645.969,138.974 645.799,138.772 645.635,138.669C645.546,138.613 645.463,138.606 645.379,138.674C645.236,138.79 645.099,139.018 644.943,139.367C644.736,139.831 644.511,140.493 644.248,141.387C643.591,143.615 642.786,145.331 641.823,146.813C640.245,149.242 638.239,151.039 635.75,153.436C633.065,156.021 627.747,158.328 622.995,162.88C620.722,165.058 618.58,167.753 616.924,171.245C613.346,178.788 611.813,185.351 610.162,189.693C609.438,191.597 608.689,193.077 607.743,194.037C606.804,194.99 604.537,196.259 601.826,197.561C595.581,200.559 586.971,203.756 586.971,203.756C586.956,203.761 586.94,203.764 586.924,203.763C586.924,203.763 586.139,203.761 585.86,205.244C585.731,205.927 585.71,206.908 585.911,208.319C586.336,211.309 587.388,216.609 589.586,221.517C590.864,224.371 592.53,227.094 594.687,229.15C598.02,232.327 605.922,237.376 615.499,240.054C622.808,242.097 631.091,242.76 639.065,240.161L639.066,240.161C639.951,239.869 638.691,241.582 636.717,243.562C635.122,245.162 633.061,246.935 631.289,247.968C629.5,249.011 627.687,251.803 626.119,255.162C624.215,259.242 622.675,264.158 621.984,267.798C621.508,270.307 621.379,271.7 621.472,272.844C621.626,274.725 622.379,275.934 623.17,280.304C623.819,283.892 624.305,285.492 625.349,286.882C626.346,288.21 627.848,289.348 630.473,291.838C631.742,293.041 632.531,294.122 633.054,295.12C634.75,298.358 633.597,300.723 637.052,303.626C639.426,305.622 640.26,306.642 641.134,307.061C641.904,307.431 642.704,307.315 644.648,307.006C645.885,306.809 646.809,306.297 647.59,305.623C649.449,304.018 650.519,301.517 652.977,300.063C654.484,299.171 655.438,298.848 656.403,298.803C657.705,298.743 659.031,299.203 661.826,299.473C665.301,299.808 670.828,302.076 676.443,303.313C678.596,303.786 680.761,304.108 682.828,304.105C684.187,304.104 685.28,304.007 686.219,303.843C690.435,303.106 691.57,301.044 699.412,300.25C704.912,299.694 708.339,300.381 709.873,300.514C710.044,300.529 710.191,300.537 710.312,300.535C710.4,300.533 710.472,300.526 710.529,300.51C710.548,300.505 710.564,300.501 710.574,300.491C710.584,300.481 710.571,300.466 710.568,300.447C710.533,300.244 710.334,299.93 709.996,299.449C709.299,298.457 709.024,297.858 708.962,297.345C708.916,296.97 708.981,296.637 709.094,296.23C709.306,295.464 709.69,294.414 709.687,292.158C709.684,289.768 708.668,285.139 707.379,280.65C706.002,275.854 704.317,271.219 703.208,269.661C701.902,267.829 699.669,264.614 697.947,261.38C696.797,259.221 695.876,257.053 695.598,255.276C695.438,254.259 695.905,253.467 696.803,252.858C697.443,252.425 698.31,252.085 699.316,251.823C703.223,250.807 709.262,250.955 711.679,250.892C712.455,250.872 713.637,250.413 715.038,249.671C717.139,248.559 719.709,246.806 722.129,244.835C725.821,241.83 729.18,238.327 729.95,235.825C730.344,234.546 730.962,232.838 731.705,230.893C734.059,224.733 737.668,216.191 739.302,211.459C740.154,208.997 742.11,206.601 744.418,204.417C747.991,201.037 752.402,198.162 754.723,196.313C756.191,195.145 756.755,194.577 756.908,194.158C756.994,193.924 756.901,193.76 756.826,193.543C756.711,193.209 756.59,192.797 756.705,192.119C756.786,191.639 756.9,191.294 756.953,191.042C756.967,190.975 756.971,190.886 756.972,190.859Z" style="fill:rgb(250,242,218);"/>
        </g>
        <g transform="matrix(0.372416,0,0,0.388704,344.793,-274.865)">
            <g transform="matrix(1,0,0,1,4.64139,-1.28194)">
                <path d="M581.67,282.94C582.173,284.647 581.88,286.551 580.703,288.093C578.679,290.524 576.877,291.282 576.095,291.456C572.968,292.151 570.753,291.259 569.316,289.224C568.762,288.439 567.297,286.156 568.605,282.726C570.012,279.035 576.345,268.391 588.522,258.741C593.377,254.894 599.065,251.069 605.811,248.105C614.19,244.422 623.973,241.959 635.215,241.507C636.031,241.41 636.775,241.966 636.876,242.748C636.977,243.529 636.397,244.243 635.581,244.339C625.291,246.388 616.801,250.266 609.502,254.644C594.33,263.745 585.313,275.949 581.67,282.94ZM570.763,280.846C570.449,280.963 570.202,281.111 570.445,281.295C570.517,281.349 570.546,281.129 570.616,281.029L570.763,280.846Z" style="fill:rgb(142,151,117);"/>
            </g>
            <path d="M646.256,143.419C646.094,143.33 645.993,143.155 646.015,142.965C646.015,142.965 646.775,140.571 647.262,143.431C647.437,144.463 647.733,146.881 648.181,152.303C648.515,156.576 646.614,165.845 644.184,177.177C641.788,188.351 638.879,201.547 637.44,213.946C636.318,223.61 636.054,232.772 637.631,240.041C637.848,241.101 637.127,242.13 636.021,242.339C634.915,242.547 633.84,241.856 633.623,240.796C632.148,233.17 632.572,223.605 633.987,213.54C635.74,201.079 638.935,187.833 641.732,176.654C644.5,165.594 646.883,156.589 646.732,152.379C646.563,147 646.408,144.594 646.273,143.568L646.256,143.419Z" style="fill:rgb(142,151,117);"/>
            <path d="M657.318,228.214C657.378,223.669 659.85,217.95 663.539,212.087C666.897,206.75 671.174,201.23 675.291,196.388C681.314,189.306 686.91,183.669 688.048,181.758C688.172,181.529 688.466,181.441 688.704,181.559C688.943,181.678 689.035,181.96 688.911,182.189C687.922,184.193 682.887,190.366 677.281,197.847C673.555,202.82 669.555,208.355 666.498,213.714C663.454,219.051 661.29,224.151 661.402,228.187C661.41,229.267 660.502,230.15 659.374,230.158C658.247,230.165 657.326,229.294 657.318,228.214Z" style="fill:rgb(142,151,117);"/>
            <path d="M714.801,243.929C714.753,243.838 714.726,243.745 714.726,243.745C714.697,243.841 714.623,243.554 714.762,243.334C714.901,243.114 715.201,243.043 715.431,243.176C715.431,243.176 716.032,243.601 716.028,244.036C716.025,244.357 715.601,245.011 713.349,245.202C711.376,245.37 707.749,245.346 701.192,244.874C696.373,244.475 692.825,243.804 689.798,242.895C682.374,240.665 678.184,237.012 665.626,232.624L658.718,230.074C657.654,229.717 657.093,228.599 657.466,227.58C657.839,226.561 659.005,226.023 660.069,226.381L667.001,229.223C679.346,234.079 683.39,237.837 690.684,240.398C693.526,241.395 696.864,242.224 701.434,242.846C705.395,243.424 708.264,243.749 710.342,243.913C712.422,244.079 713.68,244.087 714.427,243.997C714.567,243.98 714.696,243.955 714.801,243.929Z" style="fill:rgb(142,151,117);"/>
            <g transform="matrix(1.01577,0,0,1.07958,-9.3567,-16.4698)">
                <path d="M633.151,238.565C632.791,233.058 627.66,227.984 621.389,223.48C617.019,220.34 612.05,217.527 607.496,215.094C600.623,211.422 594.682,208.64 592.857,207.303C592.645,207.16 592.602,206.889 592.761,206.698C592.919,206.507 593.22,206.468 593.432,206.611C595.578,207.95 603.034,210.596 611.12,214.471C616.918,217.248 622.998,220.673 627.808,224.501C632.996,228.63 636.617,233.324 637.16,238.28C637.247,239.277 636.419,240.151 635.313,240.23C634.207,240.308 633.238,239.562 633.151,238.565Z" style="fill:rgb(142,151,117);"/>
            </g>
            <path d="M637.723,241.662C643.028,247.81 645.757,256.03 646.841,264.439C647.64,270.638 647.602,276.921 647.118,282.462C646.307,291.732 644.347,298.891 643.751,300.146C643.648,300.384 643.363,300.498 643.115,300.4C642.866,300.302 642.748,300.029 642.85,299.791C643.338,298.529 644.571,291.42 644.802,282.342C644.94,276.946 644.738,270.857 643.702,264.874C642.373,257.192 639.713,249.685 634.623,244.211C633.889,243.392 633.988,242.155 634.843,241.452C635.698,240.749 636.989,240.843 637.723,241.662Z" style="fill:rgb(142,151,117);"/>
            <path d="M638.688,241.571C643.523,249.753 645.729,254.763 649.806,258.909C653.352,262.515 658.32,265.443 667.66,269.332C675.672,272.702 683.072,277.053 689.307,281.366C699.186,288.199 706.157,294.837 708.356,296.692C708.562,296.857 708.589,297.151 708.417,297.349C708.244,297.546 707.937,297.572 707.731,297.407C705.455,295.671 698.152,289.488 688.06,283.094C681.785,279.119 674.442,275.037 666.496,271.989C656.445,268.092 651.119,265.027 647.245,261.279C642.891,257.065 640.404,251.939 635.157,243.54C634.59,242.607 634.921,241.408 635.895,240.865C636.869,240.321 638.12,240.638 638.688,241.571Z" style="fill:rgb(142,151,117);"/>
            <path d="M638.16,238.875C650.201,230.973 664.247,223.98 678.308,218.045C693.331,211.704 708.359,206.566 720.884,202.677C726.668,200.916 731.914,199.418 736.39,198.202C746.018,195.587 752.05,194.255 752.05,194.255C752.311,194.192 752.576,194.343 752.642,194.593C752.708,194.843 752.55,195.097 752.289,195.16C752.289,195.16 746.344,196.731 736.857,199.678C732.448,201.047 727.275,202.707 721.58,204.655C706.958,209.558 688.913,216.319 671.51,224.628C660.574,229.85 649.889,235.676 640.499,242.083C639.575,242.702 638.301,242.485 637.656,241.6C637.01,240.714 637.236,239.493 638.16,238.875Z" style="fill:rgb(142,151,117);"/>
        </g>
    </g>
    <defs>
        <linearGradient id="_leaf-1" x1="0" y1="0" x2="1" y2="0" gradientUnits="userSpaceOnUse" gradientTransform="matrix(171.681,0,0,169.028,585.646,222.896)"><stop offset="0" style="stop-color:rgb(142,151,117);stop-opacity:1"/><stop offset="0.36" style="stop-color:rgb(84,91,70);stop-opacity:1"/><stop offset="1" style="stop-color:rgb(74,80,61);stop-opacity:1"/></linearGradient>
    </defs>
</svg>
