<svg width="100%" height="100%"  viewBox="0 0 300 300" version="1.1" xmlns="http://www.w3.org/2000/svg" xmlns:xlink="http://www.w3.org/1999/xlink" xml:space="preserve" xmlns:serif="http://www.serif.com/" style="fill-rule:evenodd;clip-rule:evenodd;stroke-linejoin:round;stroke-miterlimit:2;">
    <g transform="matrix(-0.396728,-0.227437,0.227437,-0.396728,327.829,237.223)">
        <g transform="matrix(1,0,2.77556e-17,1,509.057,-104.671)">
            <path d="M100.258,174.677C102.51,180.372 123.164,192.725 126.262,189.054C129.359,185.383 141.077,161.171 146.297,157.131C151.518,153.091 155.876,145.569 154.333,142.689C152.791,139.809 147.105,138.455 142.152,135.669C137.198,132.884 123.914,134.397 122.617,133.805C121.32,133.214 117.347,126.591 116.672,121.978C115.997,117.366 114.003,108.342 112.769,106.193C111.535,104.045 107.048,89.118 105.813,86.718C104.579,84.318 101.848,79.772 100.565,79.32C99.283,78.867 89.325,92.355 87.322,93.142C85.319,93.929 82.27,103.142 81.491,105.368C80.712,107.594 76.727,114.342 75.296,115.875C73.865,117.409 69.725,128.978 69.725,131.411C69.725,133.845 68.097,141.328 65.605,143.051C63.113,144.774 52.762,154.516 51.727,156.73C50.693,158.944 48.134,162.493 48.08,165.18C48.026,167.868 48.771,171.359 50.371,172.838C51.972,174.317 59.853,181.637 60.301,182.678C60.748,183.718 69.351,188.17 70.554,189.811C71.757,191.453 74.323,197.816 76.204,199.044C78.086,200.271 83.709,196.927 85.633,194.527C87.557,192.128 95.014,186.525 96.716,182.57C98.418,178.615 99.96,173.922 100.258,174.677Z" style="fill:url(#_leaves-1);"/>
            <path d="M122.969,132.978C122.804,132.89 122.606,132.642 122.346,132.32C121.569,131.354 120.574,129.726 119.686,127.898C118.726,125.92 117.892,123.707 117.628,121.838C117.268,119.315 116.523,115.482 115.718,112.154C115.014,109.243 114.245,106.712 113.659,105.682C113.353,105.146 112.849,103.773 112.234,102.002C110.394,96.706 107.691,88.014 106.776,86.223C105.989,84.689 104.606,82.302 103.357,80.604C102.446,79.366 101.526,78.503 100.928,78.291C100.697,78.21 100.404,78.179 100.055,78.287C99.677,78.403 99.026,78.847 98.251,79.602C95.961,81.837 91.844,87.011 89.061,90.074C88.438,90.759 87.888,91.335 87.444,91.736C87.222,91.936 87.059,92.093 86.93,92.144C86.511,92.309 86.03,92.691 85.564,93.295C85.062,93.946 84.528,94.885 84.007,95.97C82.489,99.13 81.025,103.565 80.519,105.028C80.151,106.092 79.027,108.221 77.823,110.287C76.59,112.403 75.278,114.456 74.581,115.209C73.826,116.025 72.307,119.516 71.042,123.116C69.819,126.595 68.819,130.165 68.825,131.411C68.833,132.792 68.296,135.87 67.37,138.501C66.771,140.202 66.046,141.733 65.135,142.371C63.709,143.37 59.727,146.994 56.369,150.358C53.762,152.969 51.542,155.441 51.087,156.431C50.381,157.969 48.954,160.151 48.122,162.242C47.716,163.26 47.449,164.261 47.437,165.167C47.416,166.759 47.664,168.618 48.191,170.209C48.612,171.477 49.212,172.576 49.973,173.269C50.99,174.195 54.529,177.434 57.11,179.952C58.548,181.354 59.696,182.504 59.857,182.869C59.954,183.09 60.332,183.468 60.943,183.901C63.276,185.556 69.253,188.71 70.244,190.039C71.054,191.127 72.486,194.318 73.911,196.669C74.647,197.884 75.389,198.877 76.041,199.295C76.956,199.882 78.694,199.523 80.499,198.644C82.569,197.636 84.743,196.001 85.8,194.661C87.118,192.99 91.078,189.762 93.937,186.617C95.214,185.214 96.272,183.826 96.787,182.6C97.785,180.224 98.724,177.584 99.382,176.008C99.823,174.953 100.136,174.375 100.258,174.676L100.258,174.677C101.468,177.815 108.199,183.004 114.551,186.452C118.149,188.405 121.629,189.795 123.93,189.96C125.096,190.043 125.975,189.803 126.468,189.229C128.57,186.777 134.638,175.092 139.987,166.459C142.558,162.31 144.947,158.87 146.643,157.578C149.404,155.475 151.938,152.429 153.54,149.563C154.507,147.833 155.133,146.162 155.292,144.792C155.404,143.832 155.285,143.003 154.946,142.361C154.323,141.181 153.089,140.207 151.481,139.318C149.012,137.953 145.629,136.75 142.536,134.985C141.071,134.149 138.912,133.652 136.53,133.379C132.668,132.936 128.205,133.063 125.365,133.073C124.601,133.075 123.959,133.07 123.486,133.04C123.277,133.027 123.026,132.988 122.969,132.978ZM100.486,80.566C100.537,80.618 100.592,80.676 100.651,80.737C101.095,81.195 101.599,81.862 102.112,82.611C103.15,84.125 104.208,85.966 104.851,87.213C105.759,88.968 108.432,97.5 110.271,102.691C110.957,104.627 111.541,106.119 111.88,106.704C112.424,107.644 113.106,109.97 113.77,112.632C114.584,115.892 115.344,119.645 115.716,122.118C116.025,124.156 116.943,126.571 118.014,128.72C118.993,130.684 120.094,132.427 120.943,133.461C121.458,134.087 121.926,134.479 122.245,134.622C122.496,134.735 123.098,134.828 123.969,134.842C126.496,134.883 131.836,134.55 136.352,135.014C138.492,135.234 140.443,135.62 141.767,136.354C144.89,138.084 148.298,139.249 150.79,140.586C152.127,141.303 153.195,142.049 153.721,143.017C153.953,143.443 154.004,144.001 153.938,144.644C153.812,145.876 153.255,147.377 152.411,148.943C150.925,151.698 148.553,154.639 145.952,156.685C144.216,158.049 141.765,161.625 139.17,165.961C133.97,174.651 128.112,186.403 126.055,188.88C125.657,189.36 124.922,189.516 123.961,189.464C121.701,189.341 118.267,188.021 114.704,186.166C108.314,182.839 101.518,177.783 100.258,174.677L100.258,174.676C100.141,174.372 99.814,174.945 99.353,175.996C98.668,177.56 97.685,180.182 96.646,182.54C96.116,183.741 95.046,185.091 93.762,186.455C90.84,189.562 86.816,192.739 85.466,194.394C84.422,195.674 82.29,197.221 80.271,198.165C78.676,198.911 77.163,199.32 76.368,198.793C75.776,198.4 75.128,197.462 74.47,196.336C73.068,193.939 71.666,190.695 70.865,189.584C70.564,189.166 69.821,188.567 68.849,187.894C66.861,186.514 63.893,184.775 62.098,183.556C61.372,183.062 60.837,182.705 60.744,182.487C60.576,182.086 59.384,180.773 57.836,179.218C55.284,176.652 51.777,173.351 50.77,172.407C50.146,171.823 49.685,170.891 49.351,169.833C48.887,168.366 48.683,166.654 48.723,165.193C48.743,164.429 48.995,163.593 49.349,162.74C50.201,160.681 51.648,158.543 52.367,157.029C52.806,156.106 54.961,153.854 57.435,151.436C60.754,148.193 64.672,144.689 66.075,143.731C67.202,142.961 68.222,141.158 68.981,139.079C70.018,136.24 70.617,132.908 70.625,131.411C70.631,130.254 71.651,126.967 72.816,123.749C73.998,120.483 75.318,117.279 76.011,116.542C76.765,115.741 78.211,113.564 79.554,111.305C80.857,109.111 82.062,106.841 82.464,105.708C82.904,104.464 84.07,101.01 85.359,98.103C85.917,96.844 86.494,95.689 87.047,94.888C87.299,94.524 87.493,94.226 87.714,94.14C88.289,93.916 89.495,92.822 90.923,91.241C93.376,88.525 96.735,84.366 99.001,81.96C99.53,81.399 100.15,80.852 100.486,80.566Z" style="fill:rgb(250,242,218);"/>
        </g>
        <g transform="matrix(-0.242402,2.15355,-2.15355,-0.242402,1271.31,-216.868)">
            <path d="M191.87,298.889C186.748,299.279 181.889,298.159 177.732,296.614C175.204,295.674 172.941,294.581 171.026,293.546C167.145,291.449 164.73,289.594 164.73,289.594C164.563,289.443 164.305,289.456 164.154,289.622C164.004,289.789 164.016,290.047 164.183,290.198C164.183,290.198 166.353,292.487 170.095,295.068C171.967,296.358 174.233,297.696 176.792,298.875C181.181,300.9 186.421,302.371 192.02,302.305C192.963,302.263 193.694,301.464 193.653,300.522C193.612,299.579 192.813,298.847 191.87,298.889Z" style="fill:rgb(142,151,117);"/>
        </g>
    </g>
    <g transform="matrix(-0.433206,0.0987999,-0.0905698,-0.39712,394.142,317.638)">
        <path d="M541.637,256.839C546.622,255.1 549.468,232.862 545.669,228.514C541.871,224.167 542.16,226.401 540.458,228.716C539.43,230.114 536.245,231.46 533.441,231.957C531.599,232.284 529.921,232.244 529.129,231.612C527.129,230.017 520.974,226.888 514.685,227.142C508.396,227.396 507.11,227.425 505.593,227.543C504.076,227.661 505.124,228.703 507.134,230.222C509.144,231.742 513.889,238.228 512.65,240.213C511.411,242.198 507.575,244.458 498.813,252.211C490.052,259.963 490.522,262.702 486.352,265.349C482.182,267.997 483.97,267.003 485.681,267.338C487.393,267.672 488.78,268.947 493.35,270.509C497.919,272.071 504.207,273.86 510.888,272.742C517.569,271.625 521.51,269.627 524.732,269.627C527.954,269.627 533.044,270.03 534.964,271.654C536.884,273.278 541.015,278.317 542.54,279.813C544.064,281.308 546.073,285.161 549.159,285.242C552.245,285.323 553.237,284.875 554.544,283.673C555.851,282.47 559.805,272.932 561.238,271.836C562.67,270.74 563.427,271.096 565.618,271.9C567.81,272.703 568.3,273.963 570.172,273.998C572.044,274.033 573.299,272.061 572.16,271.146C571.021,270.232 571.701,267.974 566.694,263.579C561.687,259.184 555.905,256.99 552.409,256.99C548.912,256.99 543.316,258.09 541.622,258.09C539.928,258.09 536.652,258.578 541.637,256.839Z" style="fill:url(#_leaves-2);"/>
        <path d="M541.637,256.839C544.19,255.983 546.242,249.799 547.148,243.349C548.035,237.033 547.774,230.472 545.899,228.276C544.467,226.602 543.57,225.869 542.948,225.696C542.393,225.541 541.992,225.739 541.623,226.169C541.2,226.663 540.826,227.551 540.152,228.449C539.7,229.052 538.804,229.625 537.72,230.125C536.415,230.727 534.835,231.207 533.365,231.451C532.448,231.604 531.573,231.663 530.839,231.598C530.244,231.545 529.749,231.417 529.432,231.159C528.248,230.194 525.626,228.676 522.367,227.617C520.026,226.856 517.358,226.335 514.661,226.414L505.54,226.727C504.861,226.774 504.495,227.039 504.324,227.276C504.067,227.632 503.996,228.127 504.346,228.722C504.654,229.245 505.512,230.02 506.688,230.925C507.741,231.736 509.568,234.015 510.797,236.196C511.276,237.045 511.662,237.879 511.86,238.603C511.982,239.049 512.085,239.425 511.926,239.675C511.496,240.354 510.72,241.048 509.511,242.041C507.3,243.856 503.719,246.537 498.185,251.366C491.788,256.97 490.235,259.97 488.291,262.202C487.609,262.985 486.874,263.661 485.808,264.33C484.504,265.151 483.759,265.637 483.402,265.92C483.165,266.108 483.028,266.266 482.952,266.375C482.52,266.991 482.678,267.492 482.875,267.833C482.999,268.049 483.23,268.312 483.667,268.411C483.934,268.472 484.719,268.364 485.488,268.517C486.818,268.781 487.935,269.658 490.627,270.772C491.317,271.058 492.105,271.359 493.016,271.671C495.525,272.53 498.543,273.458 501.858,273.948C504.747,274.376 507.858,274.471 511.055,273.928C515.956,273.083 519.388,271.779 522.144,271.125C523.079,270.903 523.929,270.756 524.732,270.751C526.488,270.739 528.816,270.844 530.853,271.216C532.311,271.483 533.619,271.858 534.372,272.486C534.963,272.98 535.768,273.806 536.644,274.745C538.606,276.852 540.895,279.512 541.95,280.529C542.908,281.453 544.063,283.282 545.539,284.558C546.584,285.461 547.776,286.104 549.139,286.127C550.835,286.156 551.939,286.031 552.801,285.737C553.673,285.441 554.315,284.983 555.035,284.308C555.272,284.086 555.594,283.638 555.954,283.016C557.154,280.944 559.016,276.752 560.416,274.205C560.903,273.319 561.302,272.639 561.603,272.404C562.107,272.009 562.499,271.824 562.942,271.82C563.584,271.814 564.301,272.109 565.43,272.509C566.911,273.034 567.606,273.783 568.49,274.204C568.965,274.429 569.486,274.579 570.163,274.583C571.371,274.591 572.354,273.9 572.802,273.098C573.268,272.263 573.22,271.322 572.449,270.718C572.17,270.499 572.038,270.169 571.857,269.736C571.551,268.999 571.17,268.003 570.22,266.698C569.514,265.729 568.49,264.585 566.936,263.251C564.72,261.351 562.363,259.871 560.113,258.808C557.17,257.418 554.414,256.741 552.409,256.766C551.439,256.778 550.31,256.876 549.147,257.013C546.112,257.371 542.848,257.996 541.622,258.013C540.776,258.024 539.537,258.165 539.131,258.075C539.041,258.055 539.004,258.022 539.072,257.958C539.273,257.769 540.013,257.431 541.637,256.839L541.637,256.839ZM486.815,266.42L486.896,266.368C488.163,265.555 489.035,264.737 489.841,263.794C491.728,261.584 493.217,258.618 499.442,253.056C504.892,248.165 508.425,245.443 510.604,243.602C512.007,242.416 512.88,241.554 513.374,240.751C513.644,240.312 513.769,239.746 513.71,239.076C513.642,238.302 513.322,237.341 512.821,236.328C511.498,233.654 508.939,230.528 507.581,229.519C507.066,229.137 506.542,228.677 506.166,228.331L514.71,227.87C517.267,227.739 519.807,228.183 522.041,228.856C525.158,229.795 527.682,231.172 528.825,232.065C529.27,232.413 529.945,232.623 530.769,232.678C531.569,232.732 532.52,232.651 533.516,232.463C535.053,232.173 536.7,231.633 538.057,230.972C539.276,230.377 540.263,229.678 540.763,228.984C541.301,228.237 541.638,227.502 541.97,226.982C542.204,226.615 542.409,226.354 542.779,226.449C543.341,226.592 544.125,227.279 545.44,228.753C547.296,230.83 547.563,237.177 546.834,243.301C546.067,249.732 544.156,255.926 541.637,256.839L541.637,256.839C539.986,257.39 539.234,257.714 539.027,257.898C538.882,258.028 538.928,258.111 539.114,258.158C539.52,258.26 540.771,258.155 541.622,258.167C542.85,258.184 546.133,257.654 549.179,257.376C550.332,257.271 551.45,257.201 552.409,257.213C554.363,257.238 557.033,257.97 559.872,259.396C562.05,260.49 564.325,261.995 566.452,263.906C567.914,265.22 568.874,266.337 569.531,267.282C570.39,268.519 570.722,269.458 570.993,270.151C571.243,270.79 571.47,271.245 571.871,271.575C572.256,271.891 572.089,272.399 571.741,272.779C571.388,273.163 570.827,273.433 570.181,273.413C569.678,273.397 569.293,273.278 568.944,273.102C568.038,272.645 567.327,271.867 565.806,271.29C564.513,270.801 563.683,270.483 562.943,270.474C562.269,270.466 561.652,270.686 560.873,271.269C560.464,271.575 559.844,272.477 559.156,273.696C557.396,276.815 555.008,282.175 554.052,283.037C553.498,283.538 553.012,283.891 552.348,284.104C551.599,284.343 550.642,284.409 549.178,284.358C548.188,284.323 547.343,283.802 546.593,283.131C545.16,281.85 544.059,280.023 543.13,279.097C542.104,278.073 539.89,275.398 537.979,273.286C537.049,272.258 536.186,271.362 535.555,270.822C534.621,270.022 533.016,269.444 531.193,269.085C529.045,268.663 526.587,268.516 524.732,268.503C523.796,268.497 522.802,268.643 521.71,268.889C518.978,269.503 515.576,270.769 510.721,271.556C507.744,272.047 504.849,271.933 502.161,271.53C498.984,271.053 496.09,270.169 493.683,269.347C489.838,268.042 488.25,266.934 486.822,266.422L486.815,266.42Z" style="fill:rgb(250,242,218);"/>
        <g transform="matrix(0.104708,-0.500544,0.611911,0.128005,323.577,545.559)">
            <path d="M580.869,282.729L581.063,282.322C584.39,275.686 593.072,263.522 607.916,254.441C615.501,249.801 624.51,245.826 635.563,243.933C636.304,243.845 636.832,243.321 636.741,242.764C636.65,242.207 635.975,241.826 635.234,241.914C623.144,242.725 612.693,245.857 603.899,250.175C597.213,253.458 591.618,257.474 586.895,261.482C575.831,270.872 570.096,280.644 568.955,283.905C567.9,286.923 569.962,288.579 570.654,289.044C572.185,290.072 574.336,290.531 577.184,289.384C577.812,289.131 579.11,288.353 580.551,286.603C581.503,285.356 581.559,283.921 580.869,282.729ZM570.866,282.398L570.767,282.519C570.66,282.672 570.625,282.956 570.505,282.897C570.152,282.723 570.455,282.545 570.866,282.398Z" style="fill:rgb(142,151,117);"/>
        </g>
    </g>
    <g transform="matrix(1.62252,0.357788,-0.213151,0.966613,-77.4223,-46.4132)">
        <path d="M119.85,21.921C118.234,24.988 117.746,28.754 118.231,33.104C118.829,38.471 121.152,44.999 124.652,52.091C133.113,69.234 148.572,90.449 159.339,108.159C163.203,114.515 166.45,120.367 168.441,125.406C169.46,127.989 170.176,130.182 170.177,132.084C170.189,138.237 167.994,145.179 165.064,152.421C161.355,161.591 156.338,171.001 151.903,179.499C148.126,186.734 144.769,193.357 142.783,198.555C139.629,206.925 137.95,214.661 137.661,221.739C137.297,230.66 138.998,238.628 142.802,245.545C145.552,250.518 150.931,253.549 156.938,254.701C165.075,256.261 174.275,254.81 178.335,252.681C182.07,250.704 186.014,246.049 188.801,241.003C191.315,236.453 192.867,231.594 192.691,228.187C192.545,225.364 191.812,223.208 190.779,221.611C189.116,219.04 186.696,217.932 185.067,217.73C183.616,217.553 180.679,218.279 178.287,219.905C176.576,221.068 175.151,222.684 174.713,224.694C174.12,227.415 173.609,229.421 173.867,230.691C174.059,231.637 174.671,232.211 176.012,232.339C174.743,232.082 174.163,231.534 174.014,230.615C173.811,229.365 174.399,227.496 175.069,224.934C175.537,223.14 176.916,221.854 178.518,220.953C180.82,219.658 183.6,219.215 184.957,219.52C186.151,219.786 187.824,220.638 189.142,222.334C190.2,223.696 191.007,225.644 191.052,228.344C191.109,231.78 188.84,236.534 185.853,240.661C183.397,244.054 180.397,246.942 177.568,248.142C173.705,249.798 165.053,250.304 157.48,248.198C152.694,246.867 148.322,244.615 146.233,240.452C143.534,235.105 142.368,229.121 142.797,222.503C143.174,216.708 144.771,210.501 147.516,203.792C149.462,198.973 152.781,192.955 156.406,186.228C161.094,177.528 166.303,167.749 170.158,158.232C173.896,149.004 176.301,139.869 176.264,132.027C176.247,129.422 175.737,126.406 174.671,123.126C173.358,119.087 171.172,114.423 168.35,109.413C157.846,90.771 138.33,66.307 128.273,46.927C125.788,42.137 123.882,37.737 122.97,33.813C122.314,30.99 122.136,28.529 123.094,26.606C123.865,25.104 123.763,22.834 122.868,21.541C121.972,20.248 120.62,20.418 119.85,21.921Z" style="fill:rgb(74,80,61);"/>
    </g>
    <g transform="matrix(-0.566314,0.503657,0.503657,0.566314,529.034,0.624584)">
        <g transform="matrix(0.372416,0,0,0.388704,344.793,-274.865)">
            <path d="M639.065,240.161C620.634,246.2 600.523,234.799 594.634,229.202C588.744,223.606 586.48,213.074 585.799,208.334C585.118,203.595 586.927,203.648 586.927,203.648C586.927,203.648 604.543,197.08 607.632,193.937C610.721,190.794 611.637,181.993 616.752,171.17C621.866,160.348 631.618,157.118 635.59,153.284C639.562,149.449 642.301,147.162 644.014,141.324C645.727,135.486 645.847,139.407 649.793,143.833C653.739,148.259 661.477,158.786 660.505,169.312C659.534,179.839 654.887,184.752 658.558,187.114C662.229,189.475 663.853,188.054 666.864,185.117C669.875,182.18 676.002,177.303 681.128,174.482C686.254,171.662 688.907,167.987 693.25,168.95C697.593,169.914 711.403,182.977 728.57,183.155C745.737,183.332 746.954,189.47 752.643,190.019C758.332,190.569 757.394,190.15 757.052,192.173C756.71,194.196 758.738,193.556 754.947,196.572C751.157,199.588 741.779,205.341 739.625,211.562C737.472,217.782 731.901,230.584 730.257,235.911C728.613,241.238 715.47,251.084 711.687,251.179C707.903,251.274 695.19,250.83 695.876,255.236C696.562,259.642 701.267,266.484 703.425,269.52C705.583,272.555 709.923,287.186 709.923,292.158C709.923,297.129 708.08,296.328 710.184,299.328C712.287,302.329 709.031,299.49 699.434,300.45C689.837,301.41 690.293,304.286 682.828,304.286C675.363,304.286 666.621,300.095 661.81,299.624C656.999,299.153 656.561,298.113 653.053,300.182C649.546,302.25 648.873,306.465 644.669,307.128C640.465,307.791 641.497,307.521 636.975,303.71C632.454,299.899 635.793,297.027 630.406,291.903C625.02,286.78 624.359,287.356 623.096,280.316C621.833,273.276 620.657,274.431 621.929,267.788C623.202,261.145 627.31,250.258 631.279,247.953C635.248,245.647 640.667,239.636 639.065,240.161Z" style="fill:url(#_leaves-3);"/>
            <path d="M586.783,203.082C587.537,202.793 593.874,200.354 599.382,197.804C602.83,196.209 605.956,194.591 607.076,193.435C607.945,192.538 608.605,191.149 609.26,189.379C610.88,185.005 612.366,178.403 615.893,170.798C617.583,167.154 619.787,164.336 622.13,162.054C626.837,157.469 632.131,155.126 634.791,152.523C636.775,150.585 638.447,149.052 639.822,147.24C641.078,145.586 642.074,143.691 642.844,141.009C643.322,139.341 643.739,138.379 644.094,137.927C644.528,137.377 645.015,137.213 645.456,137.198C645.924,137.183 646.504,137.387 647.063,138.018C647.8,138.851 648.824,140.887 650.765,143.038C653.381,145.94 657.611,151.414 660.062,157.82C661.466,161.489 662.279,165.46 661.932,169.433C661.314,176.514 659.026,181.069 658.704,184.008C658.614,184.83 658.714,185.46 659.407,185.902C660.735,186.747 661.641,187.025 662.53,186.673C663.559,186.266 664.495,185.294 665.745,184.063C667.373,182.464 669.895,180.302 672.686,178.193C675.163,176.321 677.853,174.493 680.316,173.128C683.732,171.234 686.074,168.985 688.523,167.925C690.112,167.237 691.744,166.976 693.628,167.387C694.688,167.619 696.274,168.449 698.27,169.672C702.029,171.978 707.535,175.72 714.175,178.384C718.539,180.135 723.403,181.422 728.589,181.468C734.544,181.526 738.659,182.286 741.719,183.278C744.995,184.341 747.076,185.673 748.895,186.759C750.194,187.536 751.311,188.191 752.82,188.338C755.82,188.631 757.155,188.739 757.696,188.949C758.199,189.145 758.499,189.417 758.706,189.699C758.971,190.063 759.118,190.488 759.08,191.038C759.06,191.33 758.902,191.767 758.787,192.443C758.742,192.709 758.811,192.86 758.855,192.987C758.927,193.197 758.985,193.393 759.017,193.592C759.078,193.975 759.065,194.368 758.897,194.826C758.689,195.392 758.058,196.282 756.067,197.863C753.771,199.682 749.404,202.501 745.869,205.826C743.802,207.771 742.006,209.877 741.239,212.075C739.577,216.813 735.919,225.366 733.528,231.534C732.793,233.431 732.178,235.097 731.787,236.345C730.936,239.064 727.364,242.94 723.33,246.192C720.317,248.621 717.081,250.722 714.71,251.78C713.499,252.321 712.463,252.597 711.726,252.613C709.696,252.653 705.047,252.514 701.358,253.094C699.966,253.314 698.718,253.616 697.884,254.127C697.499,254.363 697.202,254.626 697.264,255.038C697.51,256.676 698.364,258.671 699.41,260.667C701.076,263.845 703.244,267.008 704.511,268.811C705.656,270.44 707.424,275.266 708.824,280.271C710.121,284.909 711.115,289.694 711.1,292.158C711.088,294.139 710.808,295.27 710.575,296.072C710.439,296.539 710.284,296.834 710.325,297.194C710.368,297.573 710.614,297.992 711.121,298.726C711.562,299.365 711.795,299.817 711.867,300.108C712.018,300.714 711.825,301.119 711.519,301.405C711.265,301.643 710.656,301.886 709.609,301.775C708.058,301.61 704.761,300.958 699.543,301.448C691.754,302.18 690.615,304.229 686.425,304.93C685.428,305.097 684.268,305.195 682.828,305.186C680.681,305.173 678.432,304.829 676.2,304.32C670.637,303.05 665.176,300.74 661.729,300.379C659.004,300.093 657.717,299.619 656.445,299.668C655.597,299.701 654.766,300.002 653.434,300.775C651.014,302.179 649.963,304.638 648.127,306.196C647.234,306.954 646.18,307.526 644.773,307.738C642.572,308.07 641.667,308.123 640.8,307.698C639.9,307.257 639.03,306.212 636.592,304.127C635.69,303.356 635.086,302.621 634.66,301.901C632.957,299.022 634.364,296.372 630.069,292.228C627.436,289.687 625.931,288.519 624.934,287.167C623.871,285.725 623.365,284.079 622.729,280.376C621.974,275.982 621.232,274.762 621.095,272.872C621.01,271.707 621.149,270.29 621.657,267.74C622.387,264.09 623.982,259.165 625.935,255.084C627.551,251.708 629.414,248.911 631.23,247.875C633.007,246.861 635.078,245.112 636.684,243.532C638.674,241.574 639.952,239.878 639.066,240.161L639.065,240.161C631.095,242.84 622.784,242.246 615.436,240.264C605.76,237.654 597.755,232.63 594.366,229.461C592.145,227.383 590.415,224.624 589.083,221.724C586.812,216.78 585.698,211.428 585.24,208.408C584.947,206.465 585.071,205.275 585.311,204.546C585.661,203.482 586.284,203.212 586.597,203.121C586.67,203.1 586.733,203.088 586.783,203.082ZM645.614,140.315C645.482,140.677 645.341,141.116 645.184,141.639C644.487,143.962 643.638,145.748 642.625,147.29C640.999,149.767 638.947,151.603 636.39,154.044C633.688,156.617 628.353,158.899 623.571,163.431C621.346,165.54 619.243,168.151 617.61,171.543C613.999,179.045 612.435,185.581 610.763,189.902C609.993,191.894 609.186,193.437 608.188,194.439C607.215,195.415 604.883,196.725 602.083,198.05C595.8,201.024 587.146,204.186 587.146,204.186L587.328,204.079C587.328,204.079 586.424,204.034 586.256,205.788C586.196,206.402 586.215,207.207 586.358,208.26C586.761,211.23 587.771,216.495 589.921,221.378C591.164,224.203 592.786,226.901 594.901,228.944C598.196,232.125 606.029,237.191 615.542,239.914C622.824,241.998 631.087,242.707 639.065,240.161L639.066,240.161C639.95,239.863 638.703,241.588 636.739,243.583C635.151,245.195 633.097,246.984 631.328,248.03C629.557,249.077 627.778,251.867 626.241,255.215C624.37,259.294 622.867,264.203 622.202,267.836C621.746,270.318 621.625,271.696 621.724,272.826C621.889,274.701 622.649,275.901 623.464,280.255C624.121,283.767 624.594,285.335 625.625,286.693C626.622,288.005 628.123,289.122 630.743,291.579C632.056,292.81 632.873,293.921 633.417,294.945C635.103,298.116 633.948,300.46 637.358,303.293C639.689,305.229 640.5,306.233 641.356,306.637C642.062,306.971 642.79,306.81 644.564,306.518C645.689,306.333 646.525,305.859 647.232,305.241C649.106,303.604 650.19,301.076 652.672,299.589C654.296,298.616 655.332,298.281 656.374,298.227C657.697,298.158 659.048,298.611 661.89,298.869C665.385,299.187 670.955,301.428 676.605,302.641C678.704,303.092 680.815,303.397 682.828,303.385C684.132,303.378 685.181,303.28 686.082,303.118C690.316,302.357 691.448,300.287 699.325,299.452C703.817,298.975 706.959,299.319 708.843,299.542L708.991,299.559C708.358,298.609 708.121,297.982 708.053,297.445C707.992,296.961 708.062,296.529 708.205,296.002C708.402,295.279 708.759,294.286 708.746,292.158C708.731,289.818 707.698,285.292 706.416,280.902C705.056,276.247 703.424,271.738 702.339,270.228C701.008,268.376 698.732,265.126 696.972,261.856C695.751,259.588 694.789,257.304 694.487,255.435C694.129,253.213 695.934,251.579 699.017,250.764C703.006,249.709 709.178,249.819 711.647,249.745C712.302,249.726 713.275,249.285 714.454,248.657C716.493,247.569 718.982,245.854 721.329,243.931C724.795,241.092 728.009,237.835 728.726,235.478C729.121,234.178 729.743,232.442 730.491,230.466C732.82,224.311 736.396,215.776 738.012,211.049C738.918,208.409 740.983,205.822 743.451,203.478C747.048,200.062 751.49,197.149 753.828,195.28C754.591,194.672 755.18,194.096 755.448,193.822C755.336,193.425 755.192,192.711 755.31,191.95C754.642,191.89 753.722,191.821 752.466,191.701C750.391,191.502 748.812,190.701 747.024,189.635C745.389,188.66 743.528,187.445 740.584,186.488C737.781,185.577 734.008,184.901 728.551,184.841C722.892,184.774 717.582,183.38 712.827,181.451C705.982,178.673 700.308,174.796 696.44,172.394C694.888,171.431 693.698,170.699 692.872,170.514C691.77,170.265 690.815,170.433 689.881,170.831C687.509,171.84 685.252,174.028 681.94,175.837C679.591,177.12 677.026,178.845 674.66,180.608C671.979,182.606 669.551,184.652 667.984,186.17C665.832,188.249 664.19,189.555 662.348,189.747C661.037,189.884 659.561,189.529 657.708,188.325C655.991,187.21 655.467,185.742 655.712,183.693C656.062,180.765 658.393,176.246 659.078,169.191C659.517,164.687 658.256,160.179 656.422,156.192C654.126,151.201 650.922,147.012 648.822,144.628C647.464,143.087 646.272,141.336 645.614,140.315Z" style="fill:rgb(250,242,218);"/>
        </g>
        <g transform="matrix(0.372416,0,0,0.388704,344.793,-274.865)">
            <path d="M579.511,282.954C580.086,284.222 579.964,285.741 579.052,286.937C577.521,288.828 576.155,289.448 575.555,289.59C573.435,290.091 571.937,289.446 570.939,288.074C570.525,287.505 569.591,285.83 570.512,283.306C571.823,279.71 577.936,269.391 589.59,259.868C594.297,256.021 599.858,252.222 606.415,249.175C614.592,245.376 624.21,242.698 635.275,241.971C635.824,241.906 636.324,242.279 636.392,242.805C636.46,243.331 636.07,243.811 635.521,243.876C623.812,245.874 614.194,250.165 606.221,255.156C591.41,264.426 582.732,276.58 579.511,282.954ZM572.326,282.113C571.938,282.213 571.658,282.365 571.951,282.614C572.058,282.705 572.14,282.362 572.267,282.185L572.326,282.113Z" style="fill:rgb(142,151,117);"/>
            <path d="M646.292,143.376C646.145,143.298 646.053,143.141 646.072,142.971L646.073,142.972L646.076,142.941C646.085,142.874 646.117,142.726 646.157,142.646C646.265,142.43 646.458,142.374 646.602,142.382C646.701,142.387 646.833,142.418 646.949,142.566C647.003,142.635 647.105,142.863 647.204,143.439C647.381,144.47 647.668,146.888 648.103,152.308C648.43,156.585 646.462,165.381 643.966,176.102C641.485,186.756 638.485,199.327 637.013,211.273C635.888,220.396 635.626,229.141 637.178,236.328C637.37,237.263 636.734,238.17 635.758,238.354C634.783,238.538 633.836,237.928 633.644,236.994C632.183,229.478 632.587,220.374 633.969,210.898C635.719,198.89 638.971,186.269 641.804,175.608C644.585,165.139 646.968,156.591 646.81,152.375C646.629,146.993 646.464,144.587 646.331,143.56C646.322,143.495 646.308,143.433 646.292,143.376Z" style="fill:rgb(142,151,117);"/>
            <path d="M656.525,230.134C656.571,225.586 659.163,219.668 662.996,213.534C666.453,208.004 670.841,202.239 675.048,197.164C681.245,189.687 686.975,183.697 688.099,181.783C688.208,181.582 688.467,181.504 688.678,181.608C688.888,181.713 688.97,181.962 688.86,182.163C687.863,184.156 682.636,190.612 676.814,198.437C672.949,203.631 668.8,209.414 665.604,214.97C662.348,220.632 660.025,225.998 660.126,230.11C660.133,231.062 659.332,231.841 658.338,231.847C657.344,231.854 656.532,231.086 656.525,230.134Z" style="fill:rgb(142,151,117);"/>
            <path d="M714.967,243.943L714.968,243.934C715.013,243.872 715.066,243.838 715.121,243.822C714.736,243.714 714.713,243.519 714.812,243.363C714.934,243.168 715.198,243.106 715.401,243.223L715.464,243.883C715.464,243.883 715.413,243.23 715.413,243.23C715.413,243.23 715.447,243.252 715.478,243.272C715.656,243.39 715.974,243.714 715.97,244.034C715.967,244.346 715.54,244.96 713.346,245.14C711.375,245.302 707.751,245.266 701.204,244.775C695.686,244.302 691.838,243.475 688.531,242.351C681.149,239.842 676.56,235.833 661.529,231.074C660.591,230.759 660.097,229.774 660.426,228.875C660.754,227.977 661.783,227.503 662.721,227.818C677.644,233.119 682.127,237.253 689.431,240.075C692.543,241.277 696.173,242.247 701.422,242.945C705.387,243.511 708.26,243.826 710.338,243.985C712.426,244.144 713.688,244.148 714.437,244.055C714.654,244.028 714.843,243.98 714.967,243.943Z" style="fill:rgb(142,151,117);"/>
            <path d="M633.361,238.567C632.978,232.972 627.694,227.838 621.277,223.282C616.898,220.174 611.946,217.389 607.415,214.982C600.595,211.36 594.714,208.618 592.897,207.293C592.703,207.162 592.657,206.906 592.793,206.72C592.93,206.535 593.198,206.49 593.392,206.621C595.513,207.951 602.85,210.575 610.844,214.408C616.577,217.156 622.613,220.541 627.417,224.329C632.705,228.497 636.415,233.258 636.95,238.278C637.033,239.227 636.296,240.062 635.305,240.142C634.315,240.221 633.444,239.516 633.361,238.567Z" style="fill:rgb(142,151,117);"/>
            <path d="M637.54,241.813C642.833,247.919 645.555,256.099 646.655,264.465C647.469,270.651 647.444,276.923 646.981,282.455C646.205,291.712 644.287,298.87 643.697,300.125C643.607,300.335 643.356,300.435 643.137,300.349C642.918,300.262 642.813,300.022 642.903,299.812C643.397,298.55 644.674,291.437 644.939,282.349C645.096,276.944 644.91,270.843 643.888,264.848C642.571,257.123 639.91,249.573 634.807,244.061C634.159,243.338 634.246,242.248 635,241.628C635.754,241.007 636.892,241.09 637.54,241.813Z" style="fill:rgb(142,151,117);"/>
            <path d="M638.479,241.688C643.338,249.882 645.562,254.899 649.655,259.049C653.22,262.664 658.21,265.599 667.591,269.489C675.599,272.84 682.996,277.175 689.234,281.468C699.124,288.274 706.116,294.887 708.319,296.734C708.501,296.88 708.525,297.139 708.372,297.313C708.22,297.487 707.949,297.51 707.768,297.365C705.497,295.621 698.212,289.411 688.134,282.992C681.861,278.997 674.515,274.899 666.565,271.832C656.556,267.934 651.251,264.879 647.397,261.139C643.059,256.929 640.588,251.81 635.366,243.424C634.866,242.601 635.158,241.544 636.016,241.065C636.875,240.586 637.979,240.865 638.479,241.688Z" style="fill:rgb(142,151,117);"/>
            <path d="M638.299,239.065C650.32,231.157 664.346,224.159 678.388,218.213C693.397,211.857 708.411,206.698 720.925,202.794C726.703,201.022 731.946,199.514 736.417,198.29C746.037,195.655 752.064,194.309 752.064,194.309C752.294,194.253 752.528,194.387 752.586,194.607C752.644,194.827 752.505,195.051 752.275,195.106C752.275,195.106 746.324,196.664 736.83,199.591C732.417,200.951 727.239,202.601 721.539,204.538C706.905,209.424 688.842,216.162 671.421,224.454C660.469,229.668 649.767,235.489 640.361,241.893C639.546,242.439 638.423,242.248 637.854,241.467C637.284,240.687 637.484,239.61 638.299,239.065Z" style="fill:rgb(142,151,117);"/>
        </g>
    </g>
    <g transform="matrix(-0.426859,-0.626835,-0.626835,0.426859,593.12,357.103)">
        <g transform="matrix(0.112732,-0.538903,0.505373,0.105718,347.432,570.669)">
            <path d="M578.105,283.019C578.692,284.08 578.634,285.462 577.863,286.473C576.533,288.146 575.38,288.637 574.882,288.714C573.486,288.93 572.512,288.385 571.891,287.29C571.607,286.789 571.117,285.393 571.854,283.379C573.21,279.674 579.395,269.271 591.088,259.758C595.724,255.985 601.204,252.292 607.62,249.307C615.49,245.645 624.72,243.026 635.323,242.206C635.695,242.161 636.03,242.447 636.071,242.843C636.113,243.239 635.845,243.597 635.473,243.641C623.987,245.468 614.398,249.477 606.422,254.236C590.537,263.713 581.345,276.572 578.105,283.019ZM573.371,282.784C573.231,283.024 573.114,283.313 573.019,283.204C572.781,282.932 573.025,282.823 573.371,282.784Z" style="fill:rgb(142,151,117);"/>
        </g>
        <path d="M541.637,256.839C546.622,255.1 549.468,232.862 545.669,228.514C541.871,224.167 542.16,226.401 540.458,228.716C539.43,230.114 536.245,231.46 533.441,231.957C531.599,232.284 529.921,232.244 529.129,231.612C527.129,230.017 520.974,226.888 514.685,227.142C508.396,227.396 507.11,227.425 505.593,227.543C504.076,227.661 505.124,228.703 507.134,230.222C509.144,231.742 513.889,238.228 512.65,240.213C511.411,242.198 507.575,244.458 498.813,252.211C490.052,259.963 490.522,262.702 486.352,265.349C482.182,267.997 483.97,267.003 485.681,267.338C487.393,267.672 488.78,268.947 493.35,270.509C497.919,272.071 504.207,273.86 510.888,272.742C517.569,271.625 521.51,269.627 524.732,269.627C527.954,269.627 533.044,270.03 534.964,271.654C536.884,273.278 541.015,278.317 542.54,279.813C544.064,281.308 546.073,285.161 549.159,285.242C552.245,285.323 553.237,284.875 554.544,283.673C555.851,282.47 559.805,272.932 561.238,271.836C562.67,270.74 563.427,271.096 565.618,271.9C567.81,272.703 568.3,273.963 570.172,273.998C572.044,274.033 573.299,272.061 572.16,271.146C571.021,270.232 571.701,267.974 566.694,263.579C561.687,259.184 555.905,256.99 552.409,256.99C548.912,256.99 543.316,258.09 541.622,258.09C539.928,258.09 536.652,258.578 541.637,256.839Z" style="fill:url(#_leaves-4);"/>
        <path d="M541.637,256.839C540.033,257.418 539.291,257.754 539.078,257.944C539,258.013 539.022,258.055 539.112,258.079C539.495,258.18 540.762,258.038 541.622,258.029C542.848,258.016 546.112,257.402 549.147,257.052C550.31,256.918 551.439,256.824 552.409,256.814C554.428,256.794 557.207,257.488 560.172,258.907C562.396,259.972 564.724,261.445 566.913,263.329C568.482,264.68 569.508,265.835 570.212,266.811C571.136,268.093 571.508,269.073 571.809,269.798C571.996,270.248 572.135,270.587 572.425,270.816C573.123,271.365 573.185,272.209 572.786,272.968C572.361,273.777 571.375,274.476 570.163,274.465C569.484,274.459 568.965,274.308 568.489,274.078C567.611,273.654 566.915,272.908 565.441,272.382C564.303,271.976 563.583,271.678 562.936,271.685C562.485,271.69 562.088,271.876 561.574,272.276C561.238,272.538 560.775,273.332 560.218,274.362C558.989,276.637 557.446,280.036 556.304,282.164C555.777,283.147 555.31,283.872 554.997,284.165C554.295,284.821 553.667,285.269 552.824,285.561C551.96,285.86 550.852,285.986 549.14,285.953C548.09,285.933 547.141,285.544 546.285,284.949C544.473,283.69 543.103,281.434 541.997,280.365C540.946,279.349 538.665,276.691 536.706,274.584C535.824,273.635 535.011,272.8 534.416,272.302C533.66,271.669 532.349,271.283 530.886,271.011C528.84,270.631 526.497,270.522 524.732,270.531C523.924,270.535 523.069,270.681 522.127,270.903C519.374,271.554 515.944,272.854 511.047,273.694C507.848,274.235 504.734,274.137 501.844,273.708C498.541,273.217 495.534,272.294 493.032,271.438C492.121,271.126 491.333,270.825 490.642,270.54C487.947,269.426 486.828,268.551 485.496,268.288C485.023,268.195 484.544,268.225 484.226,268.227C483.916,268.228 483.68,268.193 483.546,268.148C483.14,268.009 482.956,267.737 482.874,267.473C482.802,267.241 482.754,266.884 483.086,266.473C483.282,266.229 484.055,265.669 485.84,264.543C486.929,263.857 487.677,263.164 488.372,262.362C490.303,260.133 491.865,257.136 498.229,251.55C503.774,246.7 507.357,244.013 509.565,242.194C510.779,241.193 511.559,240.487 511.992,239.802C512.123,239.595 512.103,239.302 512.045,238.96C511.909,238.154 511.469,237.159 510.896,236.138C509.655,233.923 507.788,231.598 506.716,230.776C505.556,229.886 504.709,229.128 504.405,228.613C504.126,228.14 504.159,227.74 504.341,227.448C504.496,227.198 504.85,226.93 505.542,226.881C506.1,226.842 506.628,226.814 507.38,226.785C508.68,226.734 510.658,226.679 514.661,226.548C517.376,226.461 520.061,226.984 522.413,227.748C525.643,228.797 528.24,230.295 529.417,231.25C529.736,231.509 530.233,231.639 530.831,231.691C531.567,231.756 532.445,231.694 533.367,231.539C534.85,231.289 536.445,230.799 537.758,230.185C538.833,229.683 539.72,229.106 540.17,228.505C540.824,227.631 541.193,226.768 541.601,226.268C541.969,225.819 542.368,225.611 542.92,225.751C543.541,225.91 544.443,226.637 545.889,228.322C547.751,230.496 548.012,236.986 547.147,243.256C546.253,249.736 544.199,255.973 541.637,256.839L541.637,256.839ZM484.79,267.404C484.598,267.535 484.519,267.624 484.589,267.679C484.76,267.816 484.8,267.631 484.79,267.404ZM505.771,228.195C506.127,228.588 506.766,229.083 507.553,229.669C508.909,230.679 511.474,233.824 512.776,236.493C513.251,237.465 513.554,238.383 513.613,239.124C513.661,239.723 513.551,240.23 513.308,240.624C512.822,241.414 511.963,242.257 510.586,243.419C508.407,245.257 504.867,247.975 499.398,252.871C493.184,258.414 491.681,261.38 489.799,263.588C488.996,264.531 488.128,265.346 486.864,266.156C486.675,266.277 486.492,266.39 486.319,266.494C486.483,266.539 486.646,266.592 486.811,266.651C488.237,267.165 489.826,268.273 493.667,269.58C496.072,270.402 498.961,271.287 502.135,271.765C504.833,272.171 507.739,272.285 510.729,271.79C515.58,270.999 518.982,269.732 521.713,269.113C522.805,268.866 523.797,268.718 524.732,268.723C526.593,268.733 529.061,268.878 531.213,269.301C533.009,269.654 534.589,270.218 535.512,271.006C536.14,271.544 537.002,272.438 537.93,273.462C539.841,275.571 542.056,278.239 543.082,279.26C544.003,280.176 545.094,281.972 546.507,283.251C547.28,283.95 548.151,284.497 549.177,284.531C550.664,284.581 551.63,284.509 552.385,284.26C553.047,284.042 553.534,283.685 554.091,283.18C555.049,282.313 557.443,276.944 559.208,273.805C559.888,272.597 560.498,271.7 560.902,271.397C561.665,270.823 562.272,270.605 562.934,270.609C563.673,270.614 564.502,270.93 565.795,271.417C567.307,271.987 568.018,272.758 568.917,273.213C569.274,273.394 569.666,273.516 570.181,273.53C570.861,273.55 571.447,273.249 571.805,272.836C572.182,272.403 572.327,271.831 571.894,271.477C571.507,271.16 571.289,270.719 571.048,270.106C570.776,269.414 570.445,268.478 569.594,267.248C568.934,266.292 567.963,265.161 566.475,263.828C564.365,261.939 562.109,260.45 559.948,259.363C557.08,257.921 554.381,257.185 552.409,257.166C551.449,257.156 550.33,257.228 549.176,257.337C546.131,257.624 542.849,258.164 541.622,258.151C540.756,258.141 539.477,258.254 539.094,258.144C538.933,258.097 538.894,258.021 539.038,257.898C539.256,257.711 540.01,257.387 541.637,256.839L541.637,256.839C544.169,255.928 546.092,249.683 546.857,243.219C547.58,237.103 547.302,230.785 545.449,228.706C544.115,227.206 543.329,226.516 542.765,226.382C542.379,226.29 542.175,226.575 541.928,226.967C541.605,227.484 541.27,228.201 540.745,228.928C540.253,229.611 539.285,230.294 538.089,230.878C536.726,231.544 535.064,232.087 533.515,232.375C532.515,232.561 531.562,232.64 530.76,232.583C529.946,232.526 529.28,232.319 528.84,231.974C527.701,231.081 525.194,229.704 522.095,228.756C519.848,228.069 517.288,227.61 514.709,227.736C510.712,227.929 508.738,228.015 507.44,228.085C506.763,228.121 506.271,228.153 505.771,228.195Z" style="fill:rgb(250,242,218);"/>
        <g>
            <path d="M540.106,257.768C538.619,256.948 537.309,256.824 534.824,257.229C530.339,257.96 522.313,260.413 503.882,263.867C498.052,264.96 491.18,266.125 483.055,267.391C482.968,267.406 482.885,267.347 482.871,267.26C482.856,267.173 482.915,267.091 483.002,267.076C491.087,265.614 497.918,264.253 503.721,263.05C522.108,259.242 530.131,256.771 534.613,255.98C537.49,255.472 539.008,255.66 540.746,256.591C541.071,256.767 541.191,257.175 541.015,257.5C540.838,257.824 540.431,257.945 540.106,257.768Z" style="fill:rgb(142,151,117);"/>
            <path d="M539.936,257.637C532.749,249.783 526.536,246.576 517.088,237.9C514.336,235.373 511.329,232.369 507.932,228.67C507.871,228.606 507.873,228.505 507.937,228.444C508.001,228.383 508.103,228.386 508.163,228.45C511.672,232.019 514.787,234.888 517.595,237.333C527.314,245.793 533.547,248.973 540.916,256.722C541.168,256.993 541.153,257.417 540.883,257.67C540.612,257.922 540.188,257.907 539.936,257.637Z" style="fill:rgb(142,151,117);"/>
            <path d="M541.161,256.94C541.236,260.653 543.068,262.558 545.107,264.637C547.065,266.632 549.234,268.761 550.448,272.507C551.401,275.447 551.753,279.392 550.949,285.061C550.938,285.149 550.859,285.211 550.771,285.201C550.684,285.19 550.621,285.111 550.631,285.023C551.174,279.455 550.658,275.627 549.626,272.789C548.343,269.259 546.233,267.287 544.318,265.431C542.004,263.188 540,261.088 539.822,256.982C539.81,256.613 540.101,256.303 540.47,256.291C540.84,256.279 541.15,256.57 541.161,256.94Z" style="fill:rgb(142,151,117);"/>
            <path d="M541.36,256.123C549.143,261.651 548.94,259.057 555.969,262.718C557.756,263.648 560.006,264.972 562.948,266.945C564.849,268.22 567.032,269.772 569.58,271.648C569.652,271.699 569.67,271.798 569.619,271.871C569.569,271.943 569.469,271.96 569.397,271.91C566.771,270.16 564.515,268.729 562.57,267.534C559.586,265.699 557.33,264.446 555.538,263.576C552.679,262.187 551.028,261.772 549.55,261.422C547.297,260.889 545.433,260.495 540.597,257.225C540.293,257.014 540.217,256.596 540.428,256.292C540.638,255.988 541.056,255.912 541.36,256.123Z" style="fill:rgb(142,151,117);"/>
            <path d="M540.85,256.06C539.289,252.71 538.711,249.524 538.679,246.529C538.651,243.964 539.007,241.543 539.479,239.29C540.017,236.718 540.702,234.375 541.029,232.267C541.04,232.18 541.12,232.118 541.207,232.129C541.295,232.139 541.357,232.219 541.346,232.307C541.148,234.435 540.637,236.826 540.227,239.428C539.878,241.641 539.604,244.005 539.719,246.499C539.849,249.338 540.477,252.344 542.056,255.475C542.218,255.807 542.079,256.209 541.746,256.37C541.413,256.532 541.012,256.392 540.85,256.06Z" style="fill:rgb(142,151,117);"/>
            <path d="M529.686,258.514C528.192,260.784 525.912,262.435 524.514,264.599C523.663,265.916 523.142,267.426 523.411,269.466C523.427,269.553 523.369,269.636 523.282,269.652C523.196,269.668 523.112,269.611 523.096,269.524C522.579,267.355 522.963,265.655 523.766,264.157C524.978,261.899 527.195,260.153 528.545,257.811C528.739,257.496 529.152,257.398 529.467,257.592C529.782,257.786 529.88,258.199 529.686,258.514Z" style="fill:rgb(142,151,117);"/>
            <path d="M530.153,258.028C526.006,256.48 522.033,255.413 518.166,253.769C515.65,252.699 513.19,251.38 510.738,249.589C510.666,249.539 510.647,249.44 510.696,249.367C510.746,249.294 510.846,249.275 510.918,249.325C513.443,250.929 515.956,252.035 518.485,252.961C522.423,254.403 526.406,255.373 530.598,256.764C530.947,256.887 531.13,257.27 531.007,257.619C530.884,257.967 530.501,258.151 530.153,258.028Z" style="fill:rgb(142,151,117);"/>
        </g>
    </g>
    <defs>
        <linearGradient id="_leaves-1" x1="0" y1="0" x2="1" y2="0" gradientUnits="userSpaceOnUse" gradientTransform="matrix(106.571,0,0,119.998,48.077,139.307)"><stop offset="0" style="stop-color:rgb(74,80,61);stop-opacity:1"/><stop offset="0.46" style="stop-color:rgb(87,93,72);stop-opacity:1"/><stop offset="0.99" style="stop-color:rgb(120,128,99);stop-opacity:1"/><stop offset="1" style="stop-color:rgb(123,131,101);stop-opacity:1"/><stop offset="1" style="stop-color:rgb(131,140,108);stop-opacity:1"/><stop offset="1" style="stop-color:rgb(142,151,117);stop-opacity:1"/></linearGradient>
        <linearGradient id="_leaves-2" x1="0" y1="0" x2="1" y2="0" gradientUnits="userSpaceOnUse" gradientTransform="matrix(88.8022,0,0,59.214,483.792,255.644)"><stop offset="0" style="stop-color:rgb(142,151,117);stop-opacity:1"/><stop offset="0.36" style="stop-color:rgb(84,91,70);stop-opacity:1"/><stop offset="1" style="stop-color:rgb(74,80,61);stop-opacity:1"/></linearGradient>
        <linearGradient id="_leaves-3" x1="0" y1="0" x2="1" y2="0" gradientUnits="userSpaceOnUse" gradientTransform="matrix(171.681,0,0,169.028,585.646,222.896)"><stop offset="0" style="stop-color:rgb(142,151,117);stop-opacity:1"/><stop offset="0.36" style="stop-color:rgb(84,91,70);stop-opacity:1"/><stop offset="1" style="stop-color:rgb(74,80,61);stop-opacity:1"/></linearGradient>
        <linearGradient id="_leaves-4" x1="0" y1="0" x2="1" y2="0" gradientUnits="userSpaceOnUse" gradientTransform="matrix(88.8022,0,0,59.214,483.792,255.644)"><stop offset="0" style="stop-color:rgb(142,151,117);stop-opacity:1"/><stop offset="0.36" style="stop-color:rgb(84,91,70);stop-opacity:1"/><stop offset="1" style="stop-color:rgb(74,80,61);stop-opacity:1"/></linearGradient>
    </defs>
</svg>
