<svg width="100%" height="100%" viewBox="0 0 300 300" version="1.1" xmlns="http://www.w3.org/2000/svg" xmlns:xlink="http://www.w3.org/1999/xlink" xml:space="preserve" xmlns:serif="http://www.serif.com/" style="fill-rule:evenodd;clip-rule:evenodd;stroke-linecap:round;stroke-linejoin:round;stroke-miterlimit:1.5;">
    <g transform="matrix(1,0,0,1,1.20488,-14.9418)">
        <g id="middle-hand"  transform="matrix(0.868507,0,0,0.868507,19.5077,11.1696)">
            <path d="M129.711,220.289C134.574,199.853 133.098,203.572 132.309,196.977C131.521,190.381 128.632,180.21 128.314,178.937C127.995,177.663 120.437,167.626 117.967,159.651C115.497,151.675 113.35,143.854 112.82,141.195C112.291,138.537 110.415,126.316 110.415,126.316C110.415,126.316 118.366,120.167 118.681,119.355C118.996,118.542 121.721,113.057 122.735,111.594C123.749,110.13 125.501,110.13 127.389,110.13C129.277,110.13 124.139,108.39 124.316,102.509C124.494,96.627 122.416,94.094 126.571,92.779C130.725,91.463 124.19,89.272 133.163,92.2C142.135,95.128 142.437,98.644 142.974,98.567C143.512,98.491 146.406,92.188 146.406,92.188C146.406,92.188 148.17,83.779 147.365,75.999C146.56,68.22 144.775,45.818 144.154,41.146C143.533,36.473 142.705,30.245 143.089,27.834C143.473,25.424 143.064,24.293 145.393,22.918C147.721,21.542 152.288,24.928 151.654,24.753C151.019,24.577 153.642,27.447 154.626,31.268C155.611,35.089 157.617,40.571 158.488,45.419C159.359,50.266 160.335,60.148 161.256,66.598C162.178,73.048 162.681,87.991 164.056,91.548C165.432,95.104 166.848,101.123 167.341,105.356C167.834,109.588 167.858,116.55 170.786,121.939C173.714,127.328 176.36,128.192 175.859,131.543C175.357,134.894 174.221,136.536 175.644,141.033C177.068,145.53 179.708,159.699 179.222,166.552C178.736,173.406 176.124,180.504 176.355,182.959C176.585,185.414 176.205,194.975 175.595,198.142C174.985,201.31 176.737,217.917 176.737,217.917C176.737,217.917 174.944,231.173 175.54,224.252C175.812,221.096 128.45,225.587 129.711,220.289Z" style="fill:rgb(250,242,218);stroke:rgb(250,242,218);stroke-width:1px;"/>
        </g>
        <g id="left-hand" transform="matrix(0.868507,0,0,0.868507,17.5644,-41.1721)">
            <path d="M18.17,290.047C23.264,246.621 23.213,249.485 21.453,241.96C19.692,234.435 15.777,212.774 15.761,208.435C15.745,204.096 14.222,201.402 15.834,196.232C17.447,191.063 19.245,193.02 19.157,189.796C19.069,186.571 18.647,155.99 16.795,147.203C14.943,138.416 16.386,116.844 16.124,111.811C15.862,106.779 15.609,96.67 18.612,89.511C21.616,82.352 24.524,85.746 25.24,84.712C25.956,83.677 30.685,86.395 30.746,90.445C30.807,94.496 30.129,112.524 30.787,118.847C31.445,125.169 33.824,154.479 35.566,156.131C37.307,157.784 39.921,157.588 39.921,157.588C39.921,157.588 43.112,152.669 46.285,151.985C49.459,151.301 55.303,152.612 56.827,155.712C58.351,158.811 57.651,163.99 57.717,166.575C57.784,169.16 62.548,171.243 64.239,173.964C65.93,176.685 69.116,174.577 69.945,176.825C70.774,179.072 79.224,176.747 81.833,182.399C84.442,188.051 86.346,198.076 84.097,203.977C81.847,209.878 80.785,212.03 80.947,216.611C81.109,221.192 76.148,232.693 74.693,237.201C73.239,241.708 74.558,244.134 70.943,251.264C67.328,258.394 67.986,295.069 67.581,292.56C66.416,285.335 17.881,292.511 18.17,290.047Z" style="fill:rgb(142,151,117);stroke:rgb(142,151,117);stroke-width:1px;"/>
        </g>
        <g id="right-hand" transform="matrix(0.868507,0,0,0.868507,10.4476,-61.6602)">
            <path d="M291.202,301.109C279.122,277.492 277.244,268.839 274.608,261.215C271.973,253.592 271.753,230.578 271.753,230.578L272.63,191.584C272.63,191.584 271.896,160.117 272.471,156.598C273.045,153.079 269.949,129.481 269.955,125.176C269.962,120.872 270.552,112.247 268.873,109.498C267.193,106.748 261.491,107.685 259.064,108.369C256.638,109.052 255.987,115.394 256.082,121.08C256.178,126.766 256.518,152.859 256.237,155.747C255.955,158.634 256.211,176.608 256.181,178.911C256.152,181.213 254.793,173.767 251.205,171.024C247.617,168.282 241.905,170.995 239.089,173.448C236.274,175.902 236.082,185.108 236.082,185.108C236.082,185.108 234.936,183.08 230.703,182.771C226.471,182.462 222.069,186.297 221.9,189.344C221.732,192.391 214.233,191.229 212.932,191.774C211.631,192.319 209.935,200.27 209.935,200.27C209.935,200.27 205.615,205.319 204.49,209.028C203.366,212.737 202.158,213.601 203.366,217.325C204.573,221.049 207.499,229.49 207.352,233.452C207.204,237.415 211.574,251.117 213.796,255.907C216.018,260.697 219.851,269.699 223.141,272.549L226.431,275.399L240.002,299.623C240.002,299.623 270.329,308.413 283.24,302.746C286.978,301.105 291.523,301.736 291.202,301.109Z" style="fill:rgb(74,80,61);stroke:rgb(74,80,61);stroke-width:1px;"/>
        </g>
    </g>
    <g id="top-text"  transform="matrix(1,0,0,1,-274.404,109.274)">
        <g transform="matrix(120,0,0,120,278.333,164.127)">
            <path d="M0.489,-0.624L0.602,-0.624C0.674,-0.624 0.713,-0.622 0.758,-0.617L0.758,-0.808C0.712,-0.803 0.672,-0.801 0.602,-0.801L0.164,-0.801C0.103,-0.801 0.048,-0.804 0.015,-0.808L0.015,-0.617C0.086,-0.623 0.103,-0.624 0.166,-0.624L0.284,-0.624L0.284,-0.12C0.284,-0.057 0.282,-0.016 0.276,0.031L0.497,0.031C0.491,-0.016 0.489,-0.06 0.489,-0.12L0.489,-0.624Z" style="fill:rgb(250,242,218);fill-rule:nonzero;"/>
        </g>
        <g transform="matrix(120,0,0,120,371.093,164.127)">
            <path d="M0.441,-0.819C0.195,-0.819 0.037,-0.65 0.037,-0.386C0.037,-0.121 0.195,0.05 0.44,0.05C0.683,0.05 0.844,-0.125 0.844,-0.389C0.844,-0.651 0.687,-0.819 0.441,-0.819ZM0.441,-0.123C0.319,-0.123 0.244,-0.224 0.244,-0.387C0.244,-0.548 0.319,-0.647 0.441,-0.647C0.562,-0.647 0.636,-0.549 0.636,-0.387C0.636,-0.223 0.562,-0.123 0.441,-0.123Z" style="fill:rgb(250,242,218);fill-rule:nonzero;"/>
        </g>
        <g transform="matrix(120,0,0,120,476.933,164.127)">
            <path d="M0.277,0.031C0.272,-0.012 0.269,-0.061 0.269,-0.12L0.269,-0.248L0.427,-0.248C0.621,-0.248 0.735,-0.354 0.735,-0.532C0.735,-0.706 0.626,-0.801 0.428,-0.801L0.209,-0.801C0.145,-0.801 0.109,-0.802 0.062,-0.804C0.068,-0.757 0.07,-0.712 0.07,-0.658L0.07,-0.117C0.07,-0.058 0.068,-0.013 0.062,0.031L0.277,0.031ZM0.269,-0.418L0.269,-0.631L0.418,-0.631C0.49,-0.631 0.529,-0.595 0.529,-0.526C0.529,-0.457 0.488,-0.418 0.418,-0.418L0.269,-0.418Z" style="fill:rgb(250,242,218);fill-rule:nonzero;"/>
        </g>
        <path d="M342.013,94.247L350.573,94.247C358.958,94.247 363.5,94.475 368.74,95.057C370.154,95.214 371.567,94.762 372.627,93.813C373.687,92.865 374.293,91.51 374.293,90.087L374.293,67.167C374.293,65.747 373.689,64.394 372.632,63.446C371.575,62.497 370.164,62.043 368.752,62.197C363.392,62.779 358.73,63.007 350.573,63.007C350.573,63.007 298.013,63.007 298.013,63.007C290.939,63.007 284.561,62.668 280.734,62.204C279.314,62.032 277.887,62.476 276.817,63.425C275.746,64.374 275.133,65.737 275.133,67.167L275.133,90.087C275.133,91.487 275.719,92.822 276.749,93.769C277.779,94.716 279.159,95.188 280.554,95.07C288.876,94.366 290.868,94.247 298.253,94.247C298.253,94.247 307.413,94.247 307.413,94.247C307.413,94.247 307.413,149.727 307.413,149.727C307.413,157.023 307.188,161.772 306.493,167.214C306.311,168.639 306.751,170.073 307.7,171.152C308.649,172.23 310.016,172.847 311.453,172.847L337.973,172.847C339.409,172.847 340.776,172.23 341.725,171.152C342.674,170.073 343.114,168.639 342.932,167.214C342.237,161.772 342.013,156.676 342.013,149.727L342.013,94.247ZM337.013,89.247L350.573,89.247C359.213,89.247 363.893,89.487 369.293,90.087L369.293,67.167C363.773,67.767 358.973,68.007 350.573,68.007L298.013,68.007C290.693,68.007 284.093,67.647 280.133,67.167L280.133,90.087C288.653,89.367 290.693,89.247 298.253,89.247L312.413,89.247L312.413,149.727C312.413,157.287 312.173,162.207 311.453,167.847L337.973,167.847C337.253,162.207 337.013,156.927 337.013,149.727L337.013,89.247Z" style="fill:rgb(226,143,131);"/>
        <path d="M424.013,60.847C407.706,60.847 394.361,66.559 385.048,76.535C375.847,86.391 370.533,100.519 370.533,117.807C370.533,135.144 375.84,149.358 385.016,159.286C394.318,169.352 407.642,175.127 423.893,175.127C455.93,175.127 477.373,152.254 477.373,117.447C477.373,100.278 472.087,86.237 462.912,76.44C453.632,66.53 440.32,60.847 424.013,60.847ZM424.013,65.847C394.493,65.847 375.533,86.127 375.533,117.807C375.533,149.607 394.493,170.127 423.893,170.127C453.053,170.127 472.373,149.127 472.373,117.447C472.373,86.007 453.533,65.847 424.013,65.847ZM424.013,149.367C409.373,149.367 400.373,137.247 400.373,117.687C400.373,98.367 409.373,86.487 424.013,86.487C438.533,86.487 447.413,98.247 447.413,117.687C447.413,137.367 438.533,149.367 424.013,149.367ZM424.013,144.367C411.958,144.367 405.373,133.793 405.373,117.687C405.373,101.818 411.987,91.487 424.013,91.487C435.932,91.487 442.413,101.729 442.413,117.687C442.413,133.882 435.961,144.367 424.013,144.367Z" style="fill:rgb(226,143,131);"/>
        <path d="M510.173,172.847C511.599,172.847 512.958,172.238 513.907,171.173C514.855,170.107 515.304,168.687 515.139,167.27C514.558,162.274 514.213,156.582 514.213,149.727C514.213,149.727 514.213,139.368 514.213,139.368C514.213,139.367 528.173,139.367 528.173,139.367C541.29,139.367 551.642,135.602 558.776,129.01C566.049,122.288 570.133,112.559 570.133,100.287C570.133,88.176 566.154,78.889 558.915,72.555C551.908,66.424 541.633,63.007 528.293,63.007C528.293,63.007 502.013,63.007 502.013,63.007C494.425,63.007 490.157,62.889 484.585,62.652C483.113,62.589 481.688,63.179 480.691,64.264C479.694,65.349 479.226,66.819 479.413,68.281C480.107,73.717 480.333,78.922 480.333,85.167C480.333,85.167 480.333,150.087 480.333,150.087C480.333,156.898 480.111,162.093 479.418,167.172C479.223,168.603 479.656,170.048 480.606,171.136C481.555,172.223 482.929,172.847 484.373,172.847L510.173,172.847ZM510.173,167.847C509.573,162.687 509.213,156.807 509.213,149.727L509.213,134.367L528.173,134.367C551.453,134.367 565.133,121.647 565.133,100.287C565.133,79.407 552.053,68.007 528.293,68.007L502.013,68.007C494.333,68.007 490.013,67.887 484.373,67.647C485.093,73.287 485.333,78.687 485.333,85.167L485.333,150.087C485.333,157.167 485.093,162.567 484.373,167.847L510.173,167.847ZM509.213,113.967L509.213,88.407L527.093,88.407C535.733,88.407 540.413,92.727 540.413,101.007C540.413,109.287 535.493,113.967 527.093,113.967L509.213,113.967ZM514.213,108.967L514.213,93.408C514.213,93.407 527.093,93.407 527.093,93.407C529.888,93.407 532.112,93.877 533.568,95.246C534.928,96.524 535.413,98.505 535.413,101.007C535.413,103.567 534.836,105.635 533.427,106.998C531.969,108.408 529.778,108.967 527.093,108.967L514.213,108.967Z" style="fill:rgb(226,143,131);"/>
    </g>
</svg>